G04 #@! TF.GenerationSoftware,KiCad,Pcbnew,5.1.5-52549c5~84~ubuntu18.04.1*
G04 #@! TF.CreationDate,2020-02-09T17:39:49-05:00*
G04 #@! TF.ProjectId,SoundBoard,536f756e-6442-46f6-9172-642e6b696361,rev?*
G04 #@! TF.SameCoordinates,Original*
G04 #@! TF.FileFunction,Legend,Top*
G04 #@! TF.FilePolarity,Positive*
%FSLAX46Y46*%
G04 Gerber Fmt 4.6, Leading zero omitted, Abs format (unit mm)*
G04 Created by KiCad (PCBNEW 5.1.5-52549c5~84~ubuntu18.04.1) date 2020-02-09 17:39:49*
%MOMM*%
%LPD*%
G04 APERTURE LIST*
%ADD10C,0.150000*%
%ADD11C,0.120000*%
G04 APERTURE END LIST*
D10*
X155440476Y-60654761D02*
X155583333Y-60702380D01*
X155821428Y-60702380D01*
X155916666Y-60654761D01*
X155964285Y-60607142D01*
X156011904Y-60511904D01*
X156011904Y-60416666D01*
X155964285Y-60321428D01*
X155916666Y-60273809D01*
X155821428Y-60226190D01*
X155630952Y-60178571D01*
X155535714Y-60130952D01*
X155488095Y-60083333D01*
X155440476Y-59988095D01*
X155440476Y-59892857D01*
X155488095Y-59797619D01*
X155535714Y-59750000D01*
X155630952Y-59702380D01*
X155869047Y-59702380D01*
X156011904Y-59750000D01*
X156583333Y-60702380D02*
X156488095Y-60654761D01*
X156440476Y-60607142D01*
X156392857Y-60511904D01*
X156392857Y-60226190D01*
X156440476Y-60130952D01*
X156488095Y-60083333D01*
X156583333Y-60035714D01*
X156726190Y-60035714D01*
X156821428Y-60083333D01*
X156869047Y-60130952D01*
X156916666Y-60226190D01*
X156916666Y-60511904D01*
X156869047Y-60607142D01*
X156821428Y-60654761D01*
X156726190Y-60702380D01*
X156583333Y-60702380D01*
X157773809Y-60035714D02*
X157773809Y-60702380D01*
X157345238Y-60035714D02*
X157345238Y-60559523D01*
X157392857Y-60654761D01*
X157488095Y-60702380D01*
X157630952Y-60702380D01*
X157726190Y-60654761D01*
X157773809Y-60607142D01*
X158250000Y-60035714D02*
X158250000Y-60702380D01*
X158250000Y-60130952D02*
X158297619Y-60083333D01*
X158392857Y-60035714D01*
X158535714Y-60035714D01*
X158630952Y-60083333D01*
X158678571Y-60178571D01*
X158678571Y-60702380D01*
X159583333Y-60702380D02*
X159583333Y-59702380D01*
X159583333Y-60654761D02*
X159488095Y-60702380D01*
X159297619Y-60702380D01*
X159202380Y-60654761D01*
X159154761Y-60607142D01*
X159107142Y-60511904D01*
X159107142Y-60226190D01*
X159154761Y-60130952D01*
X159202380Y-60083333D01*
X159297619Y-60035714D01*
X159488095Y-60035714D01*
X159583333Y-60083333D01*
X160392857Y-60178571D02*
X160535714Y-60226190D01*
X160583333Y-60273809D01*
X160630952Y-60369047D01*
X160630952Y-60511904D01*
X160583333Y-60607142D01*
X160535714Y-60654761D01*
X160440476Y-60702380D01*
X160059523Y-60702380D01*
X160059523Y-59702380D01*
X160392857Y-59702380D01*
X160488095Y-59750000D01*
X160535714Y-59797619D01*
X160583333Y-59892857D01*
X160583333Y-59988095D01*
X160535714Y-60083333D01*
X160488095Y-60130952D01*
X160392857Y-60178571D01*
X160059523Y-60178571D01*
X161202380Y-60702380D02*
X161107142Y-60654761D01*
X161059523Y-60607142D01*
X161011904Y-60511904D01*
X161011904Y-60226190D01*
X161059523Y-60130952D01*
X161107142Y-60083333D01*
X161202380Y-60035714D01*
X161345238Y-60035714D01*
X161440476Y-60083333D01*
X161488095Y-60130952D01*
X161535714Y-60226190D01*
X161535714Y-60511904D01*
X161488095Y-60607142D01*
X161440476Y-60654761D01*
X161345238Y-60702380D01*
X161202380Y-60702380D01*
X162392857Y-60702380D02*
X162392857Y-60178571D01*
X162345238Y-60083333D01*
X162250000Y-60035714D01*
X162059523Y-60035714D01*
X161964285Y-60083333D01*
X162392857Y-60654761D02*
X162297619Y-60702380D01*
X162059523Y-60702380D01*
X161964285Y-60654761D01*
X161916666Y-60559523D01*
X161916666Y-60464285D01*
X161964285Y-60369047D01*
X162059523Y-60321428D01*
X162297619Y-60321428D01*
X162392857Y-60273809D01*
X162869047Y-60702380D02*
X162869047Y-60035714D01*
X162869047Y-60226190D02*
X162916666Y-60130952D01*
X162964285Y-60083333D01*
X163059523Y-60035714D01*
X163154761Y-60035714D01*
X163916666Y-60702380D02*
X163916666Y-59702380D01*
X163916666Y-60654761D02*
X163821428Y-60702380D01*
X163630952Y-60702380D01*
X163535714Y-60654761D01*
X163488095Y-60607142D01*
X163440476Y-60511904D01*
X163440476Y-60226190D01*
X163488095Y-60130952D01*
X163535714Y-60083333D01*
X163630952Y-60035714D01*
X163821428Y-60035714D01*
X163916666Y-60083333D01*
X165726190Y-60702380D02*
X165392857Y-60226190D01*
X165154761Y-60702380D02*
X165154761Y-59702380D01*
X165535714Y-59702380D01*
X165630952Y-59750000D01*
X165678571Y-59797619D01*
X165726190Y-59892857D01*
X165726190Y-60035714D01*
X165678571Y-60130952D01*
X165630952Y-60178571D01*
X165535714Y-60226190D01*
X165154761Y-60226190D01*
X166535714Y-60654761D02*
X166440476Y-60702380D01*
X166250000Y-60702380D01*
X166154761Y-60654761D01*
X166107142Y-60559523D01*
X166107142Y-60178571D01*
X166154761Y-60083333D01*
X166250000Y-60035714D01*
X166440476Y-60035714D01*
X166535714Y-60083333D01*
X166583333Y-60178571D01*
X166583333Y-60273809D01*
X166107142Y-60369047D01*
X166916666Y-60035714D02*
X167154761Y-60702380D01*
X167392857Y-60035714D01*
X168726190Y-59702380D02*
X168821428Y-59702380D01*
X168916666Y-59750000D01*
X168964285Y-59797619D01*
X169011904Y-59892857D01*
X169059523Y-60083333D01*
X169059523Y-60321428D01*
X169011904Y-60511904D01*
X168964285Y-60607142D01*
X168916666Y-60654761D01*
X168821428Y-60702380D01*
X168726190Y-60702380D01*
X168630952Y-60654761D01*
X168583333Y-60607142D01*
X168535714Y-60511904D01*
X168488095Y-60321428D01*
X168488095Y-60083333D01*
X168535714Y-59892857D01*
X168583333Y-59797619D01*
X168630952Y-59750000D01*
X168726190Y-59702380D01*
D11*
X127190000Y-93940000D02*
X125825000Y-93940000D01*
X127190000Y-93240000D02*
X127190000Y-93940000D01*
X127890000Y-93240000D02*
X127190000Y-93240000D01*
X141410000Y-93240000D02*
X141410000Y-93940000D01*
X140710000Y-93240000D02*
X141410000Y-93240000D01*
X127190000Y-107460000D02*
X127190000Y-106760000D01*
X127890000Y-107460000D02*
X127190000Y-107460000D01*
X141410000Y-107460000D02*
X141410000Y-106760000D01*
X140710000Y-107460000D02*
X141410000Y-107460000D01*
X148700000Y-68140000D02*
X146250000Y-68140000D01*
X146900000Y-71360000D02*
X148700000Y-71360000D01*
X148655001Y-72265001D02*
X146205001Y-72265001D01*
X146855001Y-75485001D02*
X148655001Y-75485001D01*
X132200000Y-59740000D02*
X129275000Y-59740000D01*
X132200000Y-59740000D02*
X133700000Y-59740000D01*
X132200000Y-62960000D02*
X130700000Y-62960000D01*
X132200000Y-62960000D02*
X133700000Y-62960000D01*
X142400000Y-60040000D02*
X139950000Y-60040000D01*
X140600000Y-63260000D02*
X142400000Y-63260000D01*
X153350000Y-111390000D02*
X149900000Y-111390000D01*
X153350000Y-111390000D02*
X155300000Y-111390000D01*
X153350000Y-116510000D02*
X151400000Y-116510000D01*
X153350000Y-116510000D02*
X155300000Y-116510000D01*
D10*
X158425000Y-75600000D02*
X156825000Y-75600000D01*
X158425000Y-85675000D02*
X164175000Y-85675000D01*
X158425000Y-75025000D02*
X164175000Y-75025000D01*
X158425000Y-85675000D02*
X158425000Y-85025000D01*
X164175000Y-85675000D02*
X164175000Y-85025000D01*
X164175000Y-75025000D02*
X164175000Y-75675000D01*
X158425000Y-75025000D02*
X158425000Y-75600000D01*
D11*
X151900000Y-107100000D02*
X151900000Y-108150000D01*
X153700000Y-107100000D02*
X151900000Y-107100000D01*
X151900000Y-110400000D02*
X151900000Y-109350000D01*
X154300000Y-110400000D02*
X151900000Y-110400000D01*
X169004999Y-95939999D02*
X162544999Y-95939999D01*
X169004999Y-100469999D02*
X169004999Y-97869999D01*
X169004999Y-102399999D02*
X162544999Y-102399999D01*
X162544999Y-100469999D02*
X162544999Y-97869999D01*
X169004999Y-102369999D02*
X169004999Y-102399999D01*
X169004999Y-95939999D02*
X169004999Y-95969999D01*
X162544999Y-95939999D02*
X162544999Y-95969999D01*
X162544999Y-102399999D02*
X162544999Y-102369999D01*
X169030000Y-89020000D02*
X162570000Y-89020000D01*
X169030000Y-93550000D02*
X169030000Y-90950000D01*
X169030000Y-95480000D02*
X162570000Y-95480000D01*
X162570000Y-93550000D02*
X162570000Y-90950000D01*
X169030000Y-95450000D02*
X169030000Y-95480000D01*
X169030000Y-89020000D02*
X169030000Y-89050000D01*
X162570000Y-89020000D02*
X162570000Y-89050000D01*
X162570000Y-95480000D02*
X162570000Y-95450000D01*
X132590000Y-89378733D02*
X132590000Y-89721267D01*
X133610000Y-89378733D02*
X133610000Y-89721267D01*
X128210000Y-62421267D02*
X128210000Y-62078733D01*
X127190000Y-62421267D02*
X127190000Y-62078733D01*
X128971267Y-69140000D02*
X128628733Y-69140000D01*
X128971267Y-70160000D02*
X128628733Y-70160000D01*
X145646267Y-60140000D02*
X145303733Y-60140000D01*
X145646267Y-61160000D02*
X145303733Y-61160000D01*
X132010000Y-89721267D02*
X132010000Y-89378733D01*
X130990000Y-89721267D02*
X130990000Y-89378733D01*
X160396267Y-86840000D02*
X160053733Y-86840000D01*
X160396267Y-87860000D02*
X160053733Y-87860000D01*
X150260000Y-108996267D02*
X150260000Y-108653733D01*
X149240000Y-108996267D02*
X149240000Y-108653733D01*
X157328733Y-73260000D02*
X157671267Y-73260000D01*
X157328733Y-72240000D02*
X157671267Y-72240000D01*
X150128733Y-101260000D02*
X150471267Y-101260000D01*
X150128733Y-100240000D02*
X150471267Y-100240000D01*
X150128733Y-103260000D02*
X150471267Y-103260000D01*
X150128733Y-102240000D02*
X150471267Y-102240000D01*
X150228733Y-105160000D02*
X150571267Y-105160000D01*
X150228733Y-104140000D02*
X150571267Y-104140000D01*
X158328733Y-97460000D02*
X158671267Y-97460000D01*
X158328733Y-96440000D02*
X158671267Y-96440000D01*
X158228733Y-90460000D02*
X158571267Y-90460000D01*
X158228733Y-89440000D02*
X158571267Y-89440000D01*
X172380000Y-122040000D02*
X169840000Y-122040000D01*
X172380000Y-106800000D02*
X172380000Y-122040000D01*
X169840000Y-106800000D02*
X172380000Y-106800000D01*
X162220000Y-106800000D02*
X162220000Y-122040000D01*
X169840000Y-106800000D02*
X162220000Y-106800000D01*
X162220000Y-122040000D02*
X169840000Y-122040000D01*
X123965000Y-75625000D02*
X124415000Y-75225000D01*
X124415000Y-75225000D02*
X124415000Y-76025000D01*
X124415000Y-76025000D02*
X123965000Y-75625000D01*
X118365000Y-80775000D02*
X121165000Y-80775000D01*
X121165000Y-80775000D02*
X121165000Y-81075000D01*
X121165000Y-81075000D02*
X122715000Y-81075000D01*
X118365000Y-73075000D02*
X121165000Y-73075000D01*
X121165000Y-72775000D02*
X121165000Y-73075000D01*
X121165000Y-72775000D02*
X122715000Y-72775000D01*
X139600000Y-131160000D02*
G75*
G03X140100000Y-130660000I0J500000D01*
G01*
X129100000Y-130660000D02*
G75*
G03X129600000Y-131160000I500000J0D01*
G01*
X141510000Y-129660000D02*
X141510000Y-129260000D01*
X141510000Y-126740000D02*
X141510000Y-120960000D01*
X141510000Y-118440000D02*
X141510000Y-115740000D01*
X127690000Y-126740000D02*
X127690000Y-120960000D01*
X127690000Y-129660000D02*
X127690000Y-129260000D01*
X127690000Y-118440000D02*
X127690000Y-115740000D01*
X127690000Y-115740000D02*
X141510000Y-115740000D01*
X141510000Y-129660000D02*
X127690000Y-129660000D01*
X129100000Y-129660000D02*
X129100000Y-130660000D01*
X140100000Y-129660000D02*
X140100000Y-130660000D01*
X139600000Y-131160000D02*
X129600000Y-131160000D01*
X140100000Y-130560000D02*
X139300000Y-130360000D01*
X139300000Y-130360000D02*
X137600000Y-130060000D01*
X137600000Y-130060000D02*
X136800000Y-129960000D01*
X136800000Y-129960000D02*
X135500000Y-129860000D01*
X135500000Y-129860000D02*
X133700000Y-129860000D01*
X133700000Y-129860000D02*
X132400000Y-129960000D01*
X132400000Y-129960000D02*
X130900000Y-130160000D01*
X130900000Y-130160000D02*
X129600000Y-130460000D01*
X129600000Y-130460000D02*
X129100000Y-130560000D01*
X137130000Y-87215000D02*
X137065000Y-87215000D01*
X137130000Y-83685000D02*
X137065000Y-83685000D01*
X143535000Y-87215000D02*
X143470000Y-87215000D01*
X143535000Y-83685000D02*
X143470000Y-83685000D01*
X143470000Y-82360000D02*
X143470000Y-83685000D01*
X137065000Y-83685000D02*
X137065000Y-87215000D01*
X143535000Y-83685000D02*
X143535000Y-87215000D01*
X139665000Y-68090000D02*
X139665000Y-70550000D01*
X141135000Y-68090000D02*
X139665000Y-68090000D01*
X141135000Y-70550000D02*
X141135000Y-68090000D01*
X142960000Y-72015000D02*
X140500000Y-72015000D01*
X142960000Y-73485000D02*
X142960000Y-72015000D01*
X140500000Y-73485000D02*
X142960000Y-73485000D01*
X141135000Y-67110000D02*
X141135000Y-64650000D01*
X139665000Y-67110000D02*
X141135000Y-67110000D01*
X139665000Y-64650000D02*
X139665000Y-67110000D01*
X155460000Y-72015000D02*
X153000000Y-72015000D01*
X155460000Y-73485000D02*
X155460000Y-72015000D01*
X153000000Y-73485000D02*
X155460000Y-73485000D01*
X148260000Y-100015000D02*
X145800000Y-100015000D01*
X148260000Y-101485000D02*
X148260000Y-100015000D01*
X145800000Y-101485000D02*
X148260000Y-101485000D01*
X148260000Y-102015000D02*
X145800000Y-102015000D01*
X148260000Y-103485000D02*
X148260000Y-102015000D01*
X145800000Y-103485000D02*
X148260000Y-103485000D01*
X148360000Y-103915000D02*
X145900000Y-103915000D01*
X148360000Y-105385000D02*
X148360000Y-103915000D01*
X145900000Y-105385000D02*
X148360000Y-105385000D01*
X123671267Y-94440000D02*
X123328733Y-94440000D01*
X123671267Y-95460000D02*
X123328733Y-95460000D01*
X150390000Y-69678733D02*
X150390000Y-70021267D01*
X151410000Y-69678733D02*
X151410000Y-70021267D01*
X150490000Y-73578733D02*
X150490000Y-73921267D01*
X151510000Y-73578733D02*
X151510000Y-73921267D01*
X144190000Y-73878733D02*
X144190000Y-74221267D01*
X145210000Y-73878733D02*
X145210000Y-74221267D01*
X144190000Y-69678733D02*
X144190000Y-70021267D01*
X145210000Y-69678733D02*
X145210000Y-70021267D01*
X136190000Y-61178733D02*
X136190000Y-61521267D01*
X137210000Y-61178733D02*
X137210000Y-61521267D01*
X125810000Y-74496267D02*
X125810000Y-74153733D01*
X124790000Y-74496267D02*
X124790000Y-74153733D01*
X145228733Y-63160000D02*
X145571267Y-63160000D01*
X145228733Y-62140000D02*
X145571267Y-62140000D01*
X161260000Y-114121267D02*
X161260000Y-113778733D01*
X160240000Y-114121267D02*
X160240000Y-113778733D01*
X147171267Y-113090000D02*
X146828733Y-113090000D01*
X147171267Y-114110000D02*
X146828733Y-114110000D01*
X154871267Y-76040000D02*
X154528733Y-76040000D01*
X154871267Y-77060000D02*
X154528733Y-77060000D01*
X154871267Y-77640000D02*
X154528733Y-77640000D01*
X154871267Y-78660000D02*
X154528733Y-78660000D01*
X167828733Y-81660000D02*
X168171267Y-81660000D01*
X167828733Y-80640000D02*
X168171267Y-80640000D01*
X156460000Y-108921267D02*
X156460000Y-108578733D01*
X155440000Y-108921267D02*
X155440000Y-108578733D01*
X167828733Y-83160000D02*
X168171267Y-83160000D01*
X167828733Y-82140000D02*
X168171267Y-82140000D01*
X123571267Y-104640000D02*
X123228733Y-104640000D01*
X123571267Y-105660000D02*
X123228733Y-105660000D01*
X128790000Y-110978733D02*
X128790000Y-111321267D01*
X129810000Y-110978733D02*
X129810000Y-111321267D01*
X143028733Y-110260000D02*
X143371267Y-110260000D01*
X143028733Y-109240000D02*
X143371267Y-109240000D01*
X123328733Y-99860000D02*
X123671267Y-99860000D01*
X123328733Y-98840000D02*
X123671267Y-98840000D01*
X145228733Y-94160000D02*
X145571267Y-94160000D01*
X145228733Y-93140000D02*
X145571267Y-93140000D01*
X128510000Y-89721267D02*
X128510000Y-89378733D01*
X127490000Y-89721267D02*
X127490000Y-89378733D01*
X123571267Y-103040000D02*
X123228733Y-103040000D01*
X123571267Y-104060000D02*
X123228733Y-104060000D01*
X123671267Y-96540000D02*
X123328733Y-96540000D01*
X123671267Y-97560000D02*
X123328733Y-97560000D01*
X140310000Y-111621267D02*
X140310000Y-111278733D01*
X139290000Y-111621267D02*
X139290000Y-111278733D01*
X145546267Y-94740000D02*
X145203733Y-94740000D01*
X145546267Y-95760000D02*
X145203733Y-95760000D01*
X136410000Y-65390000D02*
X135160000Y-65390000D01*
X136410000Y-66640000D02*
X136410000Y-65390000D01*
X132000000Y-68750000D02*
X132500000Y-68750000D01*
X132500000Y-68850000D02*
X132000000Y-68850000D01*
X132500000Y-68650000D02*
X132500000Y-68850000D01*
X132000000Y-68650000D02*
X132500000Y-68650000D01*
X133500000Y-71810000D02*
X133500000Y-71200000D01*
X134800000Y-71810000D02*
X134800000Y-71200000D01*
X133500000Y-65690000D02*
X133500000Y-66300000D01*
X134800000Y-65690000D02*
X134800000Y-66300000D01*
X135500000Y-69250000D02*
X136110000Y-69250000D01*
X135500000Y-71200000D02*
X135500000Y-69250000D01*
X132000000Y-71200000D02*
X135500000Y-71200000D01*
X132000000Y-66300000D02*
X132000000Y-71200000D01*
X135500000Y-66300000D02*
X132000000Y-66300000D01*
X135500000Y-68250000D02*
X135500000Y-66300000D01*
X136110000Y-68250000D02*
X135500000Y-68250000D01*
X136210000Y-67450000D02*
X136210000Y-67150000D01*
X136310000Y-67150000D02*
X136110000Y-67150000D01*
X136310000Y-67450000D02*
X136310000Y-67150000D01*
X136110000Y-67450000D02*
X136310000Y-67450000D01*
X136110000Y-71810000D02*
X136110000Y-65690000D01*
X131390000Y-71810000D02*
X136110000Y-71810000D01*
X131390000Y-65690000D02*
X131390000Y-71810000D01*
X136110000Y-65690000D02*
X131390000Y-65690000D01*
D10*
X138638095Y-89802380D02*
X138638095Y-90611904D01*
X138685714Y-90707142D01*
X138733333Y-90754761D01*
X138828571Y-90802380D01*
X139019047Y-90802380D01*
X139114285Y-90754761D01*
X139161904Y-90707142D01*
X139209523Y-90611904D01*
X139209523Y-89802380D01*
X140209523Y-90802380D02*
X139638095Y-90802380D01*
X139923809Y-90802380D02*
X139923809Y-89802380D01*
X139828571Y-89945238D01*
X139733333Y-90040476D01*
X139638095Y-90088095D01*
X147038095Y-66302380D02*
X147038095Y-67111904D01*
X147085714Y-67207142D01*
X147133333Y-67254761D01*
X147228571Y-67302380D01*
X147419047Y-67302380D01*
X147514285Y-67254761D01*
X147561904Y-67207142D01*
X147609523Y-67111904D01*
X147609523Y-66302380D01*
X148228571Y-66730952D02*
X148133333Y-66683333D01*
X148085714Y-66635714D01*
X148038095Y-66540476D01*
X148038095Y-66492857D01*
X148085714Y-66397619D01*
X148133333Y-66350000D01*
X148228571Y-66302380D01*
X148419047Y-66302380D01*
X148514285Y-66350000D01*
X148561904Y-66397619D01*
X148609523Y-66492857D01*
X148609523Y-66540476D01*
X148561904Y-66635714D01*
X148514285Y-66683333D01*
X148419047Y-66730952D01*
X148228571Y-66730952D01*
X148133333Y-66778571D01*
X148085714Y-66826190D01*
X148038095Y-66921428D01*
X148038095Y-67111904D01*
X148085714Y-67207142D01*
X148133333Y-67254761D01*
X148228571Y-67302380D01*
X148419047Y-67302380D01*
X148514285Y-67254761D01*
X148561904Y-67207142D01*
X148609523Y-67111904D01*
X148609523Y-66921428D01*
X148561904Y-66826190D01*
X148514285Y-66778571D01*
X148419047Y-66730952D01*
X147238095Y-76202380D02*
X147238095Y-77011904D01*
X147285714Y-77107142D01*
X147333333Y-77154761D01*
X147428571Y-77202380D01*
X147619047Y-77202380D01*
X147714285Y-77154761D01*
X147761904Y-77107142D01*
X147809523Y-77011904D01*
X147809523Y-76202380D01*
X148190476Y-76202380D02*
X148857142Y-76202380D01*
X148428571Y-77202380D01*
X131438095Y-58352380D02*
X131438095Y-59161904D01*
X131485714Y-59257142D01*
X131533333Y-59304761D01*
X131628571Y-59352380D01*
X131819047Y-59352380D01*
X131914285Y-59304761D01*
X131961904Y-59257142D01*
X132009523Y-59161904D01*
X132009523Y-58352380D01*
X132914285Y-58352380D02*
X132723809Y-58352380D01*
X132628571Y-58400000D01*
X132580952Y-58447619D01*
X132485714Y-58590476D01*
X132438095Y-58780952D01*
X132438095Y-59161904D01*
X132485714Y-59257142D01*
X132533333Y-59304761D01*
X132628571Y-59352380D01*
X132819047Y-59352380D01*
X132914285Y-59304761D01*
X132961904Y-59257142D01*
X133009523Y-59161904D01*
X133009523Y-58923809D01*
X132961904Y-58828571D01*
X132914285Y-58780952D01*
X132819047Y-58733333D01*
X132628571Y-58733333D01*
X132533333Y-58780952D01*
X132485714Y-58828571D01*
X132438095Y-58923809D01*
X140738095Y-58202380D02*
X140738095Y-59011904D01*
X140785714Y-59107142D01*
X140833333Y-59154761D01*
X140928571Y-59202380D01*
X141119047Y-59202380D01*
X141214285Y-59154761D01*
X141261904Y-59107142D01*
X141309523Y-59011904D01*
X141309523Y-58202380D01*
X142261904Y-58202380D02*
X141785714Y-58202380D01*
X141738095Y-58678571D01*
X141785714Y-58630952D01*
X141880952Y-58583333D01*
X142119047Y-58583333D01*
X142214285Y-58630952D01*
X142261904Y-58678571D01*
X142309523Y-58773809D01*
X142309523Y-59011904D01*
X142261904Y-59107142D01*
X142214285Y-59154761D01*
X142119047Y-59202380D01*
X141880952Y-59202380D01*
X141785714Y-59154761D01*
X141738095Y-59107142D01*
X157588095Y-110902380D02*
X157588095Y-111711904D01*
X157635714Y-111807142D01*
X157683333Y-111854761D01*
X157778571Y-111902380D01*
X157969047Y-111902380D01*
X158064285Y-111854761D01*
X158111904Y-111807142D01*
X158159523Y-111711904D01*
X158159523Y-110902380D01*
X159064285Y-111235714D02*
X159064285Y-111902380D01*
X158826190Y-110854761D02*
X158588095Y-111569047D01*
X159207142Y-111569047D01*
X160538095Y-73552380D02*
X160538095Y-74361904D01*
X160585714Y-74457142D01*
X160633333Y-74504761D01*
X160728571Y-74552380D01*
X160919047Y-74552380D01*
X161014285Y-74504761D01*
X161061904Y-74457142D01*
X161109523Y-74361904D01*
X161109523Y-73552380D01*
X161490476Y-73552380D02*
X162109523Y-73552380D01*
X161776190Y-73933333D01*
X161919047Y-73933333D01*
X162014285Y-73980952D01*
X162061904Y-74028571D01*
X162109523Y-74123809D01*
X162109523Y-74361904D01*
X162061904Y-74457142D01*
X162014285Y-74504761D01*
X161919047Y-74552380D01*
X161633333Y-74552380D01*
X161538095Y-74504761D01*
X161490476Y-74457142D01*
X151988095Y-105302380D02*
X151988095Y-106111904D01*
X152035714Y-106207142D01*
X152083333Y-106254761D01*
X152178571Y-106302380D01*
X152369047Y-106302380D01*
X152464285Y-106254761D01*
X152511904Y-106207142D01*
X152559523Y-106111904D01*
X152559523Y-105302380D01*
X152988095Y-105397619D02*
X153035714Y-105350000D01*
X153130952Y-105302380D01*
X153369047Y-105302380D01*
X153464285Y-105350000D01*
X153511904Y-105397619D01*
X153559523Y-105492857D01*
X153559523Y-105588095D01*
X153511904Y-105730952D01*
X152940476Y-106302380D01*
X153559523Y-106302380D01*
X157266666Y-99154761D02*
X157409523Y-99202380D01*
X157647619Y-99202380D01*
X157742857Y-99154761D01*
X157790476Y-99107142D01*
X157838095Y-99011904D01*
X157838095Y-98916666D01*
X157790476Y-98821428D01*
X157742857Y-98773809D01*
X157647619Y-98726190D01*
X157457142Y-98678571D01*
X157361904Y-98630952D01*
X157314285Y-98583333D01*
X157266666Y-98488095D01*
X157266666Y-98392857D01*
X157314285Y-98297619D01*
X157361904Y-98250000D01*
X157457142Y-98202380D01*
X157695238Y-98202380D01*
X157838095Y-98250000D01*
X158171428Y-98202380D02*
X158409523Y-99202380D01*
X158600000Y-98488095D01*
X158790476Y-99202380D01*
X159028571Y-98202380D01*
X159361904Y-98297619D02*
X159409523Y-98250000D01*
X159504761Y-98202380D01*
X159742857Y-98202380D01*
X159838095Y-98250000D01*
X159885714Y-98297619D01*
X159933333Y-98392857D01*
X159933333Y-98488095D01*
X159885714Y-98630952D01*
X159314285Y-99202380D01*
X159933333Y-99202380D01*
X157566666Y-92854761D02*
X157709523Y-92902380D01*
X157947619Y-92902380D01*
X158042857Y-92854761D01*
X158090476Y-92807142D01*
X158138095Y-92711904D01*
X158138095Y-92616666D01*
X158090476Y-92521428D01*
X158042857Y-92473809D01*
X157947619Y-92426190D01*
X157757142Y-92378571D01*
X157661904Y-92330952D01*
X157614285Y-92283333D01*
X157566666Y-92188095D01*
X157566666Y-92092857D01*
X157614285Y-91997619D01*
X157661904Y-91950000D01*
X157757142Y-91902380D01*
X157995238Y-91902380D01*
X158138095Y-91950000D01*
X158471428Y-91902380D02*
X158709523Y-92902380D01*
X158900000Y-92188095D01*
X159090476Y-92902380D01*
X159328571Y-91902380D01*
X160233333Y-92902380D02*
X159661904Y-92902380D01*
X159947619Y-92902380D02*
X159947619Y-91902380D01*
X159852380Y-92045238D01*
X159757142Y-92140476D01*
X159661904Y-92188095D01*
X134982380Y-90192857D02*
X134506190Y-90526190D01*
X134982380Y-90764285D02*
X133982380Y-90764285D01*
X133982380Y-90383333D01*
X134030000Y-90288095D01*
X134077619Y-90240476D01*
X134172857Y-90192857D01*
X134315714Y-90192857D01*
X134410952Y-90240476D01*
X134458571Y-90288095D01*
X134506190Y-90383333D01*
X134506190Y-90764285D01*
X134982380Y-89240476D02*
X134982380Y-89811904D01*
X134982380Y-89526190D02*
X133982380Y-89526190D01*
X134125238Y-89621428D01*
X134220476Y-89716666D01*
X134268095Y-89811904D01*
X133982380Y-88907142D02*
X133982380Y-88288095D01*
X134363333Y-88621428D01*
X134363333Y-88478571D01*
X134410952Y-88383333D01*
X134458571Y-88335714D01*
X134553809Y-88288095D01*
X134791904Y-88288095D01*
X134887142Y-88335714D01*
X134934761Y-88383333D01*
X134982380Y-88478571D01*
X134982380Y-88764285D01*
X134934761Y-88859523D01*
X134887142Y-88907142D01*
X126722380Y-62892857D02*
X126246190Y-63226190D01*
X126722380Y-63464285D02*
X125722380Y-63464285D01*
X125722380Y-63083333D01*
X125770000Y-62988095D01*
X125817619Y-62940476D01*
X125912857Y-62892857D01*
X126055714Y-62892857D01*
X126150952Y-62940476D01*
X126198571Y-62988095D01*
X126246190Y-63083333D01*
X126246190Y-63464285D01*
X126722380Y-61940476D02*
X126722380Y-62511904D01*
X126722380Y-62226190D02*
X125722380Y-62226190D01*
X125865238Y-62321428D01*
X125960476Y-62416666D01*
X126008095Y-62511904D01*
X125817619Y-61559523D02*
X125770000Y-61511904D01*
X125722380Y-61416666D01*
X125722380Y-61178571D01*
X125770000Y-61083333D01*
X125817619Y-61035714D01*
X125912857Y-60988095D01*
X126008095Y-60988095D01*
X126150952Y-61035714D01*
X126722380Y-61607142D01*
X126722380Y-60988095D01*
X128157142Y-71532380D02*
X127823809Y-71056190D01*
X127585714Y-71532380D02*
X127585714Y-70532380D01*
X127966666Y-70532380D01*
X128061904Y-70580000D01*
X128109523Y-70627619D01*
X128157142Y-70722857D01*
X128157142Y-70865714D01*
X128109523Y-70960952D01*
X128061904Y-71008571D01*
X127966666Y-71056190D01*
X127585714Y-71056190D01*
X129109523Y-71532380D02*
X128538095Y-71532380D01*
X128823809Y-71532380D02*
X128823809Y-70532380D01*
X128728571Y-70675238D01*
X128633333Y-70770476D01*
X128538095Y-70818095D01*
X130061904Y-71532380D02*
X129490476Y-71532380D01*
X129776190Y-71532380D02*
X129776190Y-70532380D01*
X129680952Y-70675238D01*
X129585714Y-70770476D01*
X129490476Y-70818095D01*
X147932142Y-61102380D02*
X147598809Y-60626190D01*
X147360714Y-61102380D02*
X147360714Y-60102380D01*
X147741666Y-60102380D01*
X147836904Y-60150000D01*
X147884523Y-60197619D01*
X147932142Y-60292857D01*
X147932142Y-60435714D01*
X147884523Y-60530952D01*
X147836904Y-60578571D01*
X147741666Y-60626190D01*
X147360714Y-60626190D01*
X148884523Y-61102380D02*
X148313095Y-61102380D01*
X148598809Y-61102380D02*
X148598809Y-60102380D01*
X148503571Y-60245238D01*
X148408333Y-60340476D01*
X148313095Y-60388095D01*
X149503571Y-60102380D02*
X149598809Y-60102380D01*
X149694047Y-60150000D01*
X149741666Y-60197619D01*
X149789285Y-60292857D01*
X149836904Y-60483333D01*
X149836904Y-60721428D01*
X149789285Y-60911904D01*
X149741666Y-61007142D01*
X149694047Y-61054761D01*
X149598809Y-61102380D01*
X149503571Y-61102380D01*
X149408333Y-61054761D01*
X149360714Y-61007142D01*
X149313095Y-60911904D01*
X149265476Y-60721428D01*
X149265476Y-60483333D01*
X149313095Y-60292857D01*
X149360714Y-60197619D01*
X149408333Y-60150000D01*
X149503571Y-60102380D01*
X130522380Y-89716666D02*
X130046190Y-90050000D01*
X130522380Y-90288095D02*
X129522380Y-90288095D01*
X129522380Y-89907142D01*
X129570000Y-89811904D01*
X129617619Y-89764285D01*
X129712857Y-89716666D01*
X129855714Y-89716666D01*
X129950952Y-89764285D01*
X129998571Y-89811904D01*
X130046190Y-89907142D01*
X130046190Y-90288095D01*
X130522380Y-89240476D02*
X130522380Y-89050000D01*
X130474761Y-88954761D01*
X130427142Y-88907142D01*
X130284285Y-88811904D01*
X130093809Y-88764285D01*
X129712857Y-88764285D01*
X129617619Y-88811904D01*
X129570000Y-88859523D01*
X129522380Y-88954761D01*
X129522380Y-89145238D01*
X129570000Y-89240476D01*
X129617619Y-89288095D01*
X129712857Y-89335714D01*
X129950952Y-89335714D01*
X130046190Y-89288095D01*
X130093809Y-89240476D01*
X130141428Y-89145238D01*
X130141428Y-88954761D01*
X130093809Y-88859523D01*
X130046190Y-88811904D01*
X129950952Y-88764285D01*
X163433333Y-87402380D02*
X163100000Y-86926190D01*
X162861904Y-87402380D02*
X162861904Y-86402380D01*
X163242857Y-86402380D01*
X163338095Y-86450000D01*
X163385714Y-86497619D01*
X163433333Y-86592857D01*
X163433333Y-86735714D01*
X163385714Y-86830952D01*
X163338095Y-86878571D01*
X163242857Y-86926190D01*
X162861904Y-86926190D01*
X164004761Y-86830952D02*
X163909523Y-86783333D01*
X163861904Y-86735714D01*
X163814285Y-86640476D01*
X163814285Y-86592857D01*
X163861904Y-86497619D01*
X163909523Y-86450000D01*
X164004761Y-86402380D01*
X164195238Y-86402380D01*
X164290476Y-86450000D01*
X164338095Y-86497619D01*
X164385714Y-86592857D01*
X164385714Y-86640476D01*
X164338095Y-86735714D01*
X164290476Y-86783333D01*
X164195238Y-86830952D01*
X164004761Y-86830952D01*
X163909523Y-86878571D01*
X163861904Y-86926190D01*
X163814285Y-87021428D01*
X163814285Y-87211904D01*
X163861904Y-87307142D01*
X163909523Y-87354761D01*
X164004761Y-87402380D01*
X164195238Y-87402380D01*
X164290476Y-87354761D01*
X164338095Y-87307142D01*
X164385714Y-87211904D01*
X164385714Y-87021428D01*
X164338095Y-86926190D01*
X164290476Y-86878571D01*
X164195238Y-86830952D01*
X148772380Y-108991666D02*
X148296190Y-109325000D01*
X148772380Y-109563095D02*
X147772380Y-109563095D01*
X147772380Y-109182142D01*
X147820000Y-109086904D01*
X147867619Y-109039285D01*
X147962857Y-108991666D01*
X148105714Y-108991666D01*
X148200952Y-109039285D01*
X148248571Y-109086904D01*
X148296190Y-109182142D01*
X148296190Y-109563095D01*
X147772380Y-108658333D02*
X147772380Y-107991666D01*
X148772380Y-108420238D01*
X157333333Y-71772380D02*
X157000000Y-71296190D01*
X156761904Y-71772380D02*
X156761904Y-70772380D01*
X157142857Y-70772380D01*
X157238095Y-70820000D01*
X157285714Y-70867619D01*
X157333333Y-70962857D01*
X157333333Y-71105714D01*
X157285714Y-71200952D01*
X157238095Y-71248571D01*
X157142857Y-71296190D01*
X156761904Y-71296190D01*
X158190476Y-70772380D02*
X158000000Y-70772380D01*
X157904761Y-70820000D01*
X157857142Y-70867619D01*
X157761904Y-71010476D01*
X157714285Y-71200952D01*
X157714285Y-71581904D01*
X157761904Y-71677142D01*
X157809523Y-71724761D01*
X157904761Y-71772380D01*
X158095238Y-71772380D01*
X158190476Y-71724761D01*
X158238095Y-71677142D01*
X158285714Y-71581904D01*
X158285714Y-71343809D01*
X158238095Y-71248571D01*
X158190476Y-71200952D01*
X158095238Y-71153333D01*
X157904761Y-71153333D01*
X157809523Y-71200952D01*
X157761904Y-71248571D01*
X157714285Y-71343809D01*
X155233333Y-101302380D02*
X154900000Y-100826190D01*
X154661904Y-101302380D02*
X154661904Y-100302380D01*
X155042857Y-100302380D01*
X155138095Y-100350000D01*
X155185714Y-100397619D01*
X155233333Y-100492857D01*
X155233333Y-100635714D01*
X155185714Y-100730952D01*
X155138095Y-100778571D01*
X155042857Y-100826190D01*
X154661904Y-100826190D01*
X156138095Y-100302380D02*
X155661904Y-100302380D01*
X155614285Y-100778571D01*
X155661904Y-100730952D01*
X155757142Y-100683333D01*
X155995238Y-100683333D01*
X156090476Y-100730952D01*
X156138095Y-100778571D01*
X156185714Y-100873809D01*
X156185714Y-101111904D01*
X156138095Y-101207142D01*
X156090476Y-101254761D01*
X155995238Y-101302380D01*
X155757142Y-101302380D01*
X155661904Y-101254761D01*
X155614285Y-101207142D01*
X155133333Y-103402380D02*
X154800000Y-102926190D01*
X154561904Y-103402380D02*
X154561904Y-102402380D01*
X154942857Y-102402380D01*
X155038095Y-102450000D01*
X155085714Y-102497619D01*
X155133333Y-102592857D01*
X155133333Y-102735714D01*
X155085714Y-102830952D01*
X155038095Y-102878571D01*
X154942857Y-102926190D01*
X154561904Y-102926190D01*
X155990476Y-102735714D02*
X155990476Y-103402380D01*
X155752380Y-102354761D02*
X155514285Y-103069047D01*
X156133333Y-103069047D01*
X155233333Y-105202380D02*
X154900000Y-104726190D01*
X154661904Y-105202380D02*
X154661904Y-104202380D01*
X155042857Y-104202380D01*
X155138095Y-104250000D01*
X155185714Y-104297619D01*
X155233333Y-104392857D01*
X155233333Y-104535714D01*
X155185714Y-104630952D01*
X155138095Y-104678571D01*
X155042857Y-104726190D01*
X154661904Y-104726190D01*
X155566666Y-104202380D02*
X156185714Y-104202380D01*
X155852380Y-104583333D01*
X155995238Y-104583333D01*
X156090476Y-104630952D01*
X156138095Y-104678571D01*
X156185714Y-104773809D01*
X156185714Y-105011904D01*
X156138095Y-105107142D01*
X156090476Y-105154761D01*
X155995238Y-105202380D01*
X155709523Y-105202380D01*
X155614285Y-105154761D01*
X155566666Y-105107142D01*
X155233333Y-97602380D02*
X154900000Y-97126190D01*
X154661904Y-97602380D02*
X154661904Y-96602380D01*
X155042857Y-96602380D01*
X155138095Y-96650000D01*
X155185714Y-96697619D01*
X155233333Y-96792857D01*
X155233333Y-96935714D01*
X155185714Y-97030952D01*
X155138095Y-97078571D01*
X155042857Y-97126190D01*
X154661904Y-97126190D01*
X155614285Y-96697619D02*
X155661904Y-96650000D01*
X155757142Y-96602380D01*
X155995238Y-96602380D01*
X156090476Y-96650000D01*
X156138095Y-96697619D01*
X156185714Y-96792857D01*
X156185714Y-96888095D01*
X156138095Y-97030952D01*
X155566666Y-97602380D01*
X156185714Y-97602380D01*
X155233333Y-90402380D02*
X154900000Y-89926190D01*
X154661904Y-90402380D02*
X154661904Y-89402380D01*
X155042857Y-89402380D01*
X155138095Y-89450000D01*
X155185714Y-89497619D01*
X155233333Y-89592857D01*
X155233333Y-89735714D01*
X155185714Y-89830952D01*
X155138095Y-89878571D01*
X155042857Y-89926190D01*
X154661904Y-89926190D01*
X156185714Y-90402380D02*
X155614285Y-90402380D01*
X155900000Y-90402380D02*
X155900000Y-89402380D01*
X155804761Y-89545238D01*
X155709523Y-89640476D01*
X155614285Y-89688095D01*
X169784380Y-109982857D02*
X169784380Y-110459047D01*
X168784380Y-110459047D01*
X169736761Y-109697142D02*
X169784380Y-109554285D01*
X169784380Y-109316190D01*
X169736761Y-109220952D01*
X169689142Y-109173333D01*
X169593904Y-109125714D01*
X169498666Y-109125714D01*
X169403428Y-109173333D01*
X169355809Y-109220952D01*
X169308190Y-109316190D01*
X169260571Y-109506666D01*
X169212952Y-109601904D01*
X169165333Y-109649523D01*
X169070095Y-109697142D01*
X168974857Y-109697142D01*
X168879619Y-109649523D01*
X168832000Y-109601904D01*
X168784380Y-109506666D01*
X168784380Y-109268571D01*
X168832000Y-109125714D01*
X169784380Y-108173333D02*
X169784380Y-108744761D01*
X169784380Y-108459047D02*
X168784380Y-108459047D01*
X168927238Y-108554285D01*
X169022476Y-108649523D01*
X169070095Y-108744761D01*
X166752380Y-119182380D02*
X167752380Y-118849047D01*
X166752380Y-118515714D01*
X167371428Y-118182380D02*
X167371428Y-117420476D01*
X166752380Y-111562380D02*
X167752380Y-111229047D01*
X166752380Y-110895714D01*
X167371428Y-110562380D02*
X167371428Y-109800476D01*
X167752380Y-110181428D02*
X166990476Y-110181428D01*
X123917380Y-79208333D02*
X124631666Y-79208333D01*
X124774523Y-79255952D01*
X124869761Y-79351190D01*
X124917380Y-79494047D01*
X124917380Y-79589285D01*
X123917380Y-78827380D02*
X123917380Y-78208333D01*
X124298333Y-78541666D01*
X124298333Y-78398809D01*
X124345952Y-78303571D01*
X124393571Y-78255952D01*
X124488809Y-78208333D01*
X124726904Y-78208333D01*
X124822142Y-78255952D01*
X124869761Y-78303571D01*
X124917380Y-78398809D01*
X124917380Y-78684523D01*
X124869761Y-78779761D01*
X124822142Y-78827380D01*
X134266666Y-131292380D02*
X134266666Y-132006666D01*
X134219047Y-132149523D01*
X134123809Y-132244761D01*
X133980952Y-132292380D01*
X133885714Y-132292380D01*
X134695238Y-131387619D02*
X134742857Y-131340000D01*
X134838095Y-131292380D01*
X135076190Y-131292380D01*
X135171428Y-131340000D01*
X135219047Y-131387619D01*
X135266666Y-131482857D01*
X135266666Y-131578095D01*
X135219047Y-131720952D01*
X134647619Y-132292380D01*
X135266666Y-132292380D01*
X143987380Y-85783333D02*
X144701666Y-85783333D01*
X144844523Y-85830952D01*
X144939761Y-85926190D01*
X144987380Y-86069047D01*
X144987380Y-86164285D01*
X144987380Y-84783333D02*
X144987380Y-85354761D01*
X144987380Y-85069047D02*
X143987380Y-85069047D01*
X144130238Y-85164285D01*
X144225476Y-85259523D01*
X144273095Y-85354761D01*
X142282380Y-70488095D02*
X141282380Y-70488095D01*
X141282380Y-70250000D01*
X141330000Y-70107142D01*
X141425238Y-70011904D01*
X141520476Y-69964285D01*
X141710952Y-69916666D01*
X141853809Y-69916666D01*
X142044285Y-69964285D01*
X142139523Y-70011904D01*
X142234761Y-70107142D01*
X142282380Y-70250000D01*
X142282380Y-70488095D01*
X141282380Y-69583333D02*
X141282380Y-68916666D01*
X142282380Y-69345238D01*
X140561904Y-74632380D02*
X140561904Y-73632380D01*
X140800000Y-73632380D01*
X140942857Y-73680000D01*
X141038095Y-73775238D01*
X141085714Y-73870476D01*
X141133333Y-74060952D01*
X141133333Y-74203809D01*
X141085714Y-74394285D01*
X141038095Y-74489523D01*
X140942857Y-74584761D01*
X140800000Y-74632380D01*
X140561904Y-74632380D01*
X141990476Y-73632380D02*
X141800000Y-73632380D01*
X141704761Y-73680000D01*
X141657142Y-73727619D01*
X141561904Y-73870476D01*
X141514285Y-74060952D01*
X141514285Y-74441904D01*
X141561904Y-74537142D01*
X141609523Y-74584761D01*
X141704761Y-74632380D01*
X141895238Y-74632380D01*
X141990476Y-74584761D01*
X142038095Y-74537142D01*
X142085714Y-74441904D01*
X142085714Y-74203809D01*
X142038095Y-74108571D01*
X141990476Y-74060952D01*
X141895238Y-74013333D01*
X141704761Y-74013333D01*
X141609523Y-74060952D01*
X141561904Y-74108571D01*
X141514285Y-74203809D01*
X139422380Y-66188095D02*
X138422380Y-66188095D01*
X138422380Y-65950000D01*
X138470000Y-65807142D01*
X138565238Y-65711904D01*
X138660476Y-65664285D01*
X138850952Y-65616666D01*
X138993809Y-65616666D01*
X139184285Y-65664285D01*
X139279523Y-65711904D01*
X139374761Y-65807142D01*
X139422380Y-65950000D01*
X139422380Y-66188095D01*
X138422380Y-64711904D02*
X138422380Y-65188095D01*
X138898571Y-65235714D01*
X138850952Y-65188095D01*
X138803333Y-65092857D01*
X138803333Y-64854761D01*
X138850952Y-64759523D01*
X138898571Y-64711904D01*
X138993809Y-64664285D01*
X139231904Y-64664285D01*
X139327142Y-64711904D01*
X139374761Y-64759523D01*
X139422380Y-64854761D01*
X139422380Y-65092857D01*
X139374761Y-65188095D01*
X139327142Y-65235714D01*
X153161904Y-71802380D02*
X153161904Y-70802380D01*
X153400000Y-70802380D01*
X153542857Y-70850000D01*
X153638095Y-70945238D01*
X153685714Y-71040476D01*
X153733333Y-71230952D01*
X153733333Y-71373809D01*
X153685714Y-71564285D01*
X153638095Y-71659523D01*
X153542857Y-71754761D01*
X153400000Y-71802380D01*
X153161904Y-71802380D01*
X154590476Y-71135714D02*
X154590476Y-71802380D01*
X154352380Y-70754761D02*
X154114285Y-71469047D01*
X154733333Y-71469047D01*
X152561904Y-101302380D02*
X152561904Y-100302380D01*
X152800000Y-100302380D01*
X152942857Y-100350000D01*
X153038095Y-100445238D01*
X153085714Y-100540476D01*
X153133333Y-100730952D01*
X153133333Y-100873809D01*
X153085714Y-101064285D01*
X153038095Y-101159523D01*
X152942857Y-101254761D01*
X152800000Y-101302380D01*
X152561904Y-101302380D01*
X153466666Y-100302380D02*
X154085714Y-100302380D01*
X153752380Y-100683333D01*
X153895238Y-100683333D01*
X153990476Y-100730952D01*
X154038095Y-100778571D01*
X154085714Y-100873809D01*
X154085714Y-101111904D01*
X154038095Y-101207142D01*
X153990476Y-101254761D01*
X153895238Y-101302380D01*
X153609523Y-101302380D01*
X153514285Y-101254761D01*
X153466666Y-101207142D01*
X152461904Y-103402380D02*
X152461904Y-102402380D01*
X152700000Y-102402380D01*
X152842857Y-102450000D01*
X152938095Y-102545238D01*
X152985714Y-102640476D01*
X153033333Y-102830952D01*
X153033333Y-102973809D01*
X152985714Y-103164285D01*
X152938095Y-103259523D01*
X152842857Y-103354761D01*
X152700000Y-103402380D01*
X152461904Y-103402380D01*
X153414285Y-102497619D02*
X153461904Y-102450000D01*
X153557142Y-102402380D01*
X153795238Y-102402380D01*
X153890476Y-102450000D01*
X153938095Y-102497619D01*
X153985714Y-102592857D01*
X153985714Y-102688095D01*
X153938095Y-102830952D01*
X153366666Y-103402380D01*
X153985714Y-103402380D01*
X152661904Y-105232380D02*
X152661904Y-104232380D01*
X152900000Y-104232380D01*
X153042857Y-104280000D01*
X153138095Y-104375238D01*
X153185714Y-104470476D01*
X153233333Y-104660952D01*
X153233333Y-104803809D01*
X153185714Y-104994285D01*
X153138095Y-105089523D01*
X153042857Y-105184761D01*
X152900000Y-105232380D01*
X152661904Y-105232380D01*
X154185714Y-105232380D02*
X153614285Y-105232380D01*
X153900000Y-105232380D02*
X153900000Y-104232380D01*
X153804761Y-104375238D01*
X153709523Y-104470476D01*
X153614285Y-104518095D01*
X119757142Y-95307142D02*
X119709523Y-95354761D01*
X119566666Y-95402380D01*
X119471428Y-95402380D01*
X119328571Y-95354761D01*
X119233333Y-95259523D01*
X119185714Y-95164285D01*
X119138095Y-94973809D01*
X119138095Y-94830952D01*
X119185714Y-94640476D01*
X119233333Y-94545238D01*
X119328571Y-94450000D01*
X119471428Y-94402380D01*
X119566666Y-94402380D01*
X119709523Y-94450000D01*
X119757142Y-94497619D01*
X120138095Y-94497619D02*
X120185714Y-94450000D01*
X120280952Y-94402380D01*
X120519047Y-94402380D01*
X120614285Y-94450000D01*
X120661904Y-94497619D01*
X120709523Y-94592857D01*
X120709523Y-94688095D01*
X120661904Y-94830952D01*
X120090476Y-95402380D01*
X120709523Y-95402380D01*
X121614285Y-94402380D02*
X121138095Y-94402380D01*
X121090476Y-94878571D01*
X121138095Y-94830952D01*
X121233333Y-94783333D01*
X121471428Y-94783333D01*
X121566666Y-94830952D01*
X121614285Y-94878571D01*
X121661904Y-94973809D01*
X121661904Y-95211904D01*
X121614285Y-95307142D01*
X121566666Y-95354761D01*
X121471428Y-95402380D01*
X121233333Y-95402380D01*
X121138095Y-95354761D01*
X121090476Y-95307142D01*
X151257142Y-67192857D02*
X151304761Y-67240476D01*
X151352380Y-67383333D01*
X151352380Y-67478571D01*
X151304761Y-67621428D01*
X151209523Y-67716666D01*
X151114285Y-67764285D01*
X150923809Y-67811904D01*
X150780952Y-67811904D01*
X150590476Y-67764285D01*
X150495238Y-67716666D01*
X150400000Y-67621428D01*
X150352380Y-67478571D01*
X150352380Y-67383333D01*
X150400000Y-67240476D01*
X150447619Y-67192857D01*
X150447619Y-66811904D02*
X150400000Y-66764285D01*
X150352380Y-66669047D01*
X150352380Y-66430952D01*
X150400000Y-66335714D01*
X150447619Y-66288095D01*
X150542857Y-66240476D01*
X150638095Y-66240476D01*
X150780952Y-66288095D01*
X151352380Y-66859523D01*
X151352380Y-66240476D01*
X150685714Y-65383333D02*
X151352380Y-65383333D01*
X150304761Y-65621428D02*
X151019047Y-65859523D01*
X151019047Y-65240476D01*
X151457142Y-77592857D02*
X151504761Y-77640476D01*
X151552380Y-77783333D01*
X151552380Y-77878571D01*
X151504761Y-78021428D01*
X151409523Y-78116666D01*
X151314285Y-78164285D01*
X151123809Y-78211904D01*
X150980952Y-78211904D01*
X150790476Y-78164285D01*
X150695238Y-78116666D01*
X150600000Y-78021428D01*
X150552380Y-77878571D01*
X150552380Y-77783333D01*
X150600000Y-77640476D01*
X150647619Y-77592857D01*
X150647619Y-77211904D02*
X150600000Y-77164285D01*
X150552380Y-77069047D01*
X150552380Y-76830952D01*
X150600000Y-76735714D01*
X150647619Y-76688095D01*
X150742857Y-76640476D01*
X150838095Y-76640476D01*
X150980952Y-76688095D01*
X151552380Y-77259523D01*
X151552380Y-76640476D01*
X150552380Y-76307142D02*
X150552380Y-75688095D01*
X150933333Y-76021428D01*
X150933333Y-75878571D01*
X150980952Y-75783333D01*
X151028571Y-75735714D01*
X151123809Y-75688095D01*
X151361904Y-75688095D01*
X151457142Y-75735714D01*
X151504761Y-75783333D01*
X151552380Y-75878571D01*
X151552380Y-76164285D01*
X151504761Y-76259523D01*
X151457142Y-76307142D01*
X145157142Y-77892857D02*
X145204761Y-77940476D01*
X145252380Y-78083333D01*
X145252380Y-78178571D01*
X145204761Y-78321428D01*
X145109523Y-78416666D01*
X145014285Y-78464285D01*
X144823809Y-78511904D01*
X144680952Y-78511904D01*
X144490476Y-78464285D01*
X144395238Y-78416666D01*
X144300000Y-78321428D01*
X144252380Y-78178571D01*
X144252380Y-78083333D01*
X144300000Y-77940476D01*
X144347619Y-77892857D01*
X144347619Y-77511904D02*
X144300000Y-77464285D01*
X144252380Y-77369047D01*
X144252380Y-77130952D01*
X144300000Y-77035714D01*
X144347619Y-76988095D01*
X144442857Y-76940476D01*
X144538095Y-76940476D01*
X144680952Y-76988095D01*
X145252380Y-77559523D01*
X145252380Y-76940476D01*
X144347619Y-76559523D02*
X144300000Y-76511904D01*
X144252380Y-76416666D01*
X144252380Y-76178571D01*
X144300000Y-76083333D01*
X144347619Y-76035714D01*
X144442857Y-75988095D01*
X144538095Y-75988095D01*
X144680952Y-76035714D01*
X145252380Y-76607142D01*
X145252380Y-75988095D01*
X145057142Y-67092857D02*
X145104761Y-67140476D01*
X145152380Y-67283333D01*
X145152380Y-67378571D01*
X145104761Y-67521428D01*
X145009523Y-67616666D01*
X144914285Y-67664285D01*
X144723809Y-67711904D01*
X144580952Y-67711904D01*
X144390476Y-67664285D01*
X144295238Y-67616666D01*
X144200000Y-67521428D01*
X144152380Y-67378571D01*
X144152380Y-67283333D01*
X144200000Y-67140476D01*
X144247619Y-67092857D01*
X144247619Y-66711904D02*
X144200000Y-66664285D01*
X144152380Y-66569047D01*
X144152380Y-66330952D01*
X144200000Y-66235714D01*
X144247619Y-66188095D01*
X144342857Y-66140476D01*
X144438095Y-66140476D01*
X144580952Y-66188095D01*
X145152380Y-66759523D01*
X145152380Y-66140476D01*
X145152380Y-65188095D02*
X145152380Y-65759523D01*
X145152380Y-65473809D02*
X144152380Y-65473809D01*
X144295238Y-65569047D01*
X144390476Y-65664285D01*
X144438095Y-65759523D01*
X137057142Y-58692857D02*
X137104761Y-58740476D01*
X137152380Y-58883333D01*
X137152380Y-58978571D01*
X137104761Y-59121428D01*
X137009523Y-59216666D01*
X136914285Y-59264285D01*
X136723809Y-59311904D01*
X136580952Y-59311904D01*
X136390476Y-59264285D01*
X136295238Y-59216666D01*
X136200000Y-59121428D01*
X136152380Y-58978571D01*
X136152380Y-58883333D01*
X136200000Y-58740476D01*
X136247619Y-58692857D01*
X136247619Y-58311904D02*
X136200000Y-58264285D01*
X136152380Y-58169047D01*
X136152380Y-57930952D01*
X136200000Y-57835714D01*
X136247619Y-57788095D01*
X136342857Y-57740476D01*
X136438095Y-57740476D01*
X136580952Y-57788095D01*
X137152380Y-58359523D01*
X137152380Y-57740476D01*
X136152380Y-57121428D02*
X136152380Y-57026190D01*
X136200000Y-56930952D01*
X136247619Y-56883333D01*
X136342857Y-56835714D01*
X136533333Y-56788095D01*
X136771428Y-56788095D01*
X136961904Y-56835714D01*
X137057142Y-56883333D01*
X137104761Y-56930952D01*
X137152380Y-57026190D01*
X137152380Y-57121428D01*
X137104761Y-57216666D01*
X137057142Y-57264285D01*
X136961904Y-57311904D01*
X136771428Y-57359523D01*
X136533333Y-57359523D01*
X136342857Y-57311904D01*
X136247619Y-57264285D01*
X136200000Y-57216666D01*
X136152380Y-57121428D01*
X127157142Y-74767857D02*
X127204761Y-74815476D01*
X127252380Y-74958333D01*
X127252380Y-75053571D01*
X127204761Y-75196428D01*
X127109523Y-75291666D01*
X127014285Y-75339285D01*
X126823809Y-75386904D01*
X126680952Y-75386904D01*
X126490476Y-75339285D01*
X126395238Y-75291666D01*
X126300000Y-75196428D01*
X126252380Y-75053571D01*
X126252380Y-74958333D01*
X126300000Y-74815476D01*
X126347619Y-74767857D01*
X127252380Y-73815476D02*
X127252380Y-74386904D01*
X127252380Y-74101190D02*
X126252380Y-74101190D01*
X126395238Y-74196428D01*
X126490476Y-74291666D01*
X126538095Y-74386904D01*
X127252380Y-73339285D02*
X127252380Y-73148809D01*
X127204761Y-73053571D01*
X127157142Y-73005952D01*
X127014285Y-72910714D01*
X126823809Y-72863095D01*
X126442857Y-72863095D01*
X126347619Y-72910714D01*
X126300000Y-72958333D01*
X126252380Y-73053571D01*
X126252380Y-73244047D01*
X126300000Y-73339285D01*
X126347619Y-73386904D01*
X126442857Y-73434523D01*
X126680952Y-73434523D01*
X126776190Y-73386904D01*
X126823809Y-73339285D01*
X126871428Y-73244047D01*
X126871428Y-73053571D01*
X126823809Y-72958333D01*
X126776190Y-72910714D01*
X126680952Y-72863095D01*
X147957142Y-63107142D02*
X147909523Y-63154761D01*
X147766666Y-63202380D01*
X147671428Y-63202380D01*
X147528571Y-63154761D01*
X147433333Y-63059523D01*
X147385714Y-62964285D01*
X147338095Y-62773809D01*
X147338095Y-62630952D01*
X147385714Y-62440476D01*
X147433333Y-62345238D01*
X147528571Y-62250000D01*
X147671428Y-62202380D01*
X147766666Y-62202380D01*
X147909523Y-62250000D01*
X147957142Y-62297619D01*
X148909523Y-63202380D02*
X148338095Y-63202380D01*
X148623809Y-63202380D02*
X148623809Y-62202380D01*
X148528571Y-62345238D01*
X148433333Y-62440476D01*
X148338095Y-62488095D01*
X149480952Y-62630952D02*
X149385714Y-62583333D01*
X149338095Y-62535714D01*
X149290476Y-62440476D01*
X149290476Y-62392857D01*
X149338095Y-62297619D01*
X149385714Y-62250000D01*
X149480952Y-62202380D01*
X149671428Y-62202380D01*
X149766666Y-62250000D01*
X149814285Y-62297619D01*
X149861904Y-62392857D01*
X149861904Y-62440476D01*
X149814285Y-62535714D01*
X149766666Y-62583333D01*
X149671428Y-62630952D01*
X149480952Y-62630952D01*
X149385714Y-62678571D01*
X149338095Y-62726190D01*
X149290476Y-62821428D01*
X149290476Y-63011904D01*
X149338095Y-63107142D01*
X149385714Y-63154761D01*
X149480952Y-63202380D01*
X149671428Y-63202380D01*
X149766666Y-63154761D01*
X149814285Y-63107142D01*
X149861904Y-63011904D01*
X149861904Y-62821428D01*
X149814285Y-62726190D01*
X149766666Y-62678571D01*
X149671428Y-62630952D01*
X159677142Y-114592857D02*
X159724761Y-114640476D01*
X159772380Y-114783333D01*
X159772380Y-114878571D01*
X159724761Y-115021428D01*
X159629523Y-115116666D01*
X159534285Y-115164285D01*
X159343809Y-115211904D01*
X159200952Y-115211904D01*
X159010476Y-115164285D01*
X158915238Y-115116666D01*
X158820000Y-115021428D01*
X158772380Y-114878571D01*
X158772380Y-114783333D01*
X158820000Y-114640476D01*
X158867619Y-114592857D01*
X159772380Y-113640476D02*
X159772380Y-114211904D01*
X159772380Y-113926190D02*
X158772380Y-113926190D01*
X158915238Y-114021428D01*
X159010476Y-114116666D01*
X159058095Y-114211904D01*
X158772380Y-113307142D02*
X158772380Y-112640476D01*
X159772380Y-113069047D01*
X146357142Y-115387142D02*
X146309523Y-115434761D01*
X146166666Y-115482380D01*
X146071428Y-115482380D01*
X145928571Y-115434761D01*
X145833333Y-115339523D01*
X145785714Y-115244285D01*
X145738095Y-115053809D01*
X145738095Y-114910952D01*
X145785714Y-114720476D01*
X145833333Y-114625238D01*
X145928571Y-114530000D01*
X146071428Y-114482380D01*
X146166666Y-114482380D01*
X146309523Y-114530000D01*
X146357142Y-114577619D01*
X147309523Y-115482380D02*
X146738095Y-115482380D01*
X147023809Y-115482380D02*
X147023809Y-114482380D01*
X146928571Y-114625238D01*
X146833333Y-114720476D01*
X146738095Y-114768095D01*
X148166666Y-114482380D02*
X147976190Y-114482380D01*
X147880952Y-114530000D01*
X147833333Y-114577619D01*
X147738095Y-114720476D01*
X147690476Y-114910952D01*
X147690476Y-115291904D01*
X147738095Y-115387142D01*
X147785714Y-115434761D01*
X147880952Y-115482380D01*
X148071428Y-115482380D01*
X148166666Y-115434761D01*
X148214285Y-115387142D01*
X148261904Y-115291904D01*
X148261904Y-115053809D01*
X148214285Y-114958571D01*
X148166666Y-114910952D01*
X148071428Y-114863333D01*
X147880952Y-114863333D01*
X147785714Y-114910952D01*
X147738095Y-114958571D01*
X147690476Y-115053809D01*
X153957142Y-75407142D02*
X153909523Y-75454761D01*
X153766666Y-75502380D01*
X153671428Y-75502380D01*
X153528571Y-75454761D01*
X153433333Y-75359523D01*
X153385714Y-75264285D01*
X153338095Y-75073809D01*
X153338095Y-74930952D01*
X153385714Y-74740476D01*
X153433333Y-74645238D01*
X153528571Y-74550000D01*
X153671428Y-74502380D01*
X153766666Y-74502380D01*
X153909523Y-74550000D01*
X153957142Y-74597619D01*
X154909523Y-75502380D02*
X154338095Y-75502380D01*
X154623809Y-75502380D02*
X154623809Y-74502380D01*
X154528571Y-74645238D01*
X154433333Y-74740476D01*
X154338095Y-74788095D01*
X155814285Y-74502380D02*
X155338095Y-74502380D01*
X155290476Y-74978571D01*
X155338095Y-74930952D01*
X155433333Y-74883333D01*
X155671428Y-74883333D01*
X155766666Y-74930952D01*
X155814285Y-74978571D01*
X155861904Y-75073809D01*
X155861904Y-75311904D01*
X155814285Y-75407142D01*
X155766666Y-75454761D01*
X155671428Y-75502380D01*
X155433333Y-75502380D01*
X155338095Y-75454761D01*
X155290476Y-75407142D01*
X154057142Y-79937142D02*
X154009523Y-79984761D01*
X153866666Y-80032380D01*
X153771428Y-80032380D01*
X153628571Y-79984761D01*
X153533333Y-79889523D01*
X153485714Y-79794285D01*
X153438095Y-79603809D01*
X153438095Y-79460952D01*
X153485714Y-79270476D01*
X153533333Y-79175238D01*
X153628571Y-79080000D01*
X153771428Y-79032380D01*
X153866666Y-79032380D01*
X154009523Y-79080000D01*
X154057142Y-79127619D01*
X155009523Y-80032380D02*
X154438095Y-80032380D01*
X154723809Y-80032380D02*
X154723809Y-79032380D01*
X154628571Y-79175238D01*
X154533333Y-79270476D01*
X154438095Y-79318095D01*
X155866666Y-79365714D02*
X155866666Y-80032380D01*
X155628571Y-78984761D02*
X155390476Y-79699047D01*
X156009523Y-79699047D01*
X170557142Y-81507142D02*
X170509523Y-81554761D01*
X170366666Y-81602380D01*
X170271428Y-81602380D01*
X170128571Y-81554761D01*
X170033333Y-81459523D01*
X169985714Y-81364285D01*
X169938095Y-81173809D01*
X169938095Y-81030952D01*
X169985714Y-80840476D01*
X170033333Y-80745238D01*
X170128571Y-80650000D01*
X170271428Y-80602380D01*
X170366666Y-80602380D01*
X170509523Y-80650000D01*
X170557142Y-80697619D01*
X171509523Y-81602380D02*
X170938095Y-81602380D01*
X171223809Y-81602380D02*
X171223809Y-80602380D01*
X171128571Y-80745238D01*
X171033333Y-80840476D01*
X170938095Y-80888095D01*
X171842857Y-80602380D02*
X172461904Y-80602380D01*
X172128571Y-80983333D01*
X172271428Y-80983333D01*
X172366666Y-81030952D01*
X172414285Y-81078571D01*
X172461904Y-81173809D01*
X172461904Y-81411904D01*
X172414285Y-81507142D01*
X172366666Y-81554761D01*
X172271428Y-81602380D01*
X171985714Y-81602380D01*
X171890476Y-81554761D01*
X171842857Y-81507142D01*
X157807142Y-109392857D02*
X157854761Y-109440476D01*
X157902380Y-109583333D01*
X157902380Y-109678571D01*
X157854761Y-109821428D01*
X157759523Y-109916666D01*
X157664285Y-109964285D01*
X157473809Y-110011904D01*
X157330952Y-110011904D01*
X157140476Y-109964285D01*
X157045238Y-109916666D01*
X156950000Y-109821428D01*
X156902380Y-109678571D01*
X156902380Y-109583333D01*
X156950000Y-109440476D01*
X156997619Y-109392857D01*
X157902380Y-108440476D02*
X157902380Y-109011904D01*
X157902380Y-108726190D02*
X156902380Y-108726190D01*
X157045238Y-108821428D01*
X157140476Y-108916666D01*
X157188095Y-109011904D01*
X156997619Y-108059523D02*
X156950000Y-108011904D01*
X156902380Y-107916666D01*
X156902380Y-107678571D01*
X156950000Y-107583333D01*
X156997619Y-107535714D01*
X157092857Y-107488095D01*
X157188095Y-107488095D01*
X157330952Y-107535714D01*
X157902380Y-108107142D01*
X157902380Y-107488095D01*
X170557142Y-83107142D02*
X170509523Y-83154761D01*
X170366666Y-83202380D01*
X170271428Y-83202380D01*
X170128571Y-83154761D01*
X170033333Y-83059523D01*
X169985714Y-82964285D01*
X169938095Y-82773809D01*
X169938095Y-82630952D01*
X169985714Y-82440476D01*
X170033333Y-82345238D01*
X170128571Y-82250000D01*
X170271428Y-82202380D01*
X170366666Y-82202380D01*
X170509523Y-82250000D01*
X170557142Y-82297619D01*
X171509523Y-83202380D02*
X170938095Y-83202380D01*
X171223809Y-83202380D02*
X171223809Y-82202380D01*
X171128571Y-82345238D01*
X171033333Y-82440476D01*
X170938095Y-82488095D01*
X172461904Y-83202380D02*
X171890476Y-83202380D01*
X172176190Y-83202380D02*
X172176190Y-82202380D01*
X172080952Y-82345238D01*
X171985714Y-82440476D01*
X171890476Y-82488095D01*
X119657142Y-105507142D02*
X119609523Y-105554761D01*
X119466666Y-105602380D01*
X119371428Y-105602380D01*
X119228571Y-105554761D01*
X119133333Y-105459523D01*
X119085714Y-105364285D01*
X119038095Y-105173809D01*
X119038095Y-105030952D01*
X119085714Y-104840476D01*
X119133333Y-104745238D01*
X119228571Y-104650000D01*
X119371428Y-104602380D01*
X119466666Y-104602380D01*
X119609523Y-104650000D01*
X119657142Y-104697619D01*
X120609523Y-105602380D02*
X120038095Y-105602380D01*
X120323809Y-105602380D02*
X120323809Y-104602380D01*
X120228571Y-104745238D01*
X120133333Y-104840476D01*
X120038095Y-104888095D01*
X121228571Y-104602380D02*
X121323809Y-104602380D01*
X121419047Y-104650000D01*
X121466666Y-104697619D01*
X121514285Y-104792857D01*
X121561904Y-104983333D01*
X121561904Y-105221428D01*
X121514285Y-105411904D01*
X121466666Y-105507142D01*
X121419047Y-105554761D01*
X121323809Y-105602380D01*
X121228571Y-105602380D01*
X121133333Y-105554761D01*
X121085714Y-105507142D01*
X121038095Y-105411904D01*
X120990476Y-105221428D01*
X120990476Y-104983333D01*
X121038095Y-104792857D01*
X121085714Y-104697619D01*
X121133333Y-104650000D01*
X121228571Y-104602380D01*
X131087142Y-111316666D02*
X131134761Y-111364285D01*
X131182380Y-111507142D01*
X131182380Y-111602380D01*
X131134761Y-111745238D01*
X131039523Y-111840476D01*
X130944285Y-111888095D01*
X130753809Y-111935714D01*
X130610952Y-111935714D01*
X130420476Y-111888095D01*
X130325238Y-111840476D01*
X130230000Y-111745238D01*
X130182380Y-111602380D01*
X130182380Y-111507142D01*
X130230000Y-111364285D01*
X130277619Y-111316666D01*
X131182380Y-110840476D02*
X131182380Y-110650000D01*
X131134761Y-110554761D01*
X131087142Y-110507142D01*
X130944285Y-110411904D01*
X130753809Y-110364285D01*
X130372857Y-110364285D01*
X130277619Y-110411904D01*
X130230000Y-110459523D01*
X130182380Y-110554761D01*
X130182380Y-110745238D01*
X130230000Y-110840476D01*
X130277619Y-110888095D01*
X130372857Y-110935714D01*
X130610952Y-110935714D01*
X130706190Y-110888095D01*
X130753809Y-110840476D01*
X130801428Y-110745238D01*
X130801428Y-110554761D01*
X130753809Y-110459523D01*
X130706190Y-110411904D01*
X130610952Y-110364285D01*
X145733333Y-110107142D02*
X145685714Y-110154761D01*
X145542857Y-110202380D01*
X145447619Y-110202380D01*
X145304761Y-110154761D01*
X145209523Y-110059523D01*
X145161904Y-109964285D01*
X145114285Y-109773809D01*
X145114285Y-109630952D01*
X145161904Y-109440476D01*
X145209523Y-109345238D01*
X145304761Y-109250000D01*
X145447619Y-109202380D01*
X145542857Y-109202380D01*
X145685714Y-109250000D01*
X145733333Y-109297619D01*
X146304761Y-109630952D02*
X146209523Y-109583333D01*
X146161904Y-109535714D01*
X146114285Y-109440476D01*
X146114285Y-109392857D01*
X146161904Y-109297619D01*
X146209523Y-109250000D01*
X146304761Y-109202380D01*
X146495238Y-109202380D01*
X146590476Y-109250000D01*
X146638095Y-109297619D01*
X146685714Y-109392857D01*
X146685714Y-109440476D01*
X146638095Y-109535714D01*
X146590476Y-109583333D01*
X146495238Y-109630952D01*
X146304761Y-109630952D01*
X146209523Y-109678571D01*
X146161904Y-109726190D01*
X146114285Y-109821428D01*
X146114285Y-110011904D01*
X146161904Y-110107142D01*
X146209523Y-110154761D01*
X146304761Y-110202380D01*
X146495238Y-110202380D01*
X146590476Y-110154761D01*
X146638095Y-110107142D01*
X146685714Y-110011904D01*
X146685714Y-109821428D01*
X146638095Y-109726190D01*
X146590476Y-109678571D01*
X146495238Y-109630952D01*
X120633333Y-99707142D02*
X120585714Y-99754761D01*
X120442857Y-99802380D01*
X120347619Y-99802380D01*
X120204761Y-99754761D01*
X120109523Y-99659523D01*
X120061904Y-99564285D01*
X120014285Y-99373809D01*
X120014285Y-99230952D01*
X120061904Y-99040476D01*
X120109523Y-98945238D01*
X120204761Y-98850000D01*
X120347619Y-98802380D01*
X120442857Y-98802380D01*
X120585714Y-98850000D01*
X120633333Y-98897619D01*
X120966666Y-98802380D02*
X121633333Y-98802380D01*
X121204761Y-99802380D01*
X147933333Y-94107142D02*
X147885714Y-94154761D01*
X147742857Y-94202380D01*
X147647619Y-94202380D01*
X147504761Y-94154761D01*
X147409523Y-94059523D01*
X147361904Y-93964285D01*
X147314285Y-93773809D01*
X147314285Y-93630952D01*
X147361904Y-93440476D01*
X147409523Y-93345238D01*
X147504761Y-93250000D01*
X147647619Y-93202380D01*
X147742857Y-93202380D01*
X147885714Y-93250000D01*
X147933333Y-93297619D01*
X148790476Y-93202380D02*
X148600000Y-93202380D01*
X148504761Y-93250000D01*
X148457142Y-93297619D01*
X148361904Y-93440476D01*
X148314285Y-93630952D01*
X148314285Y-94011904D01*
X148361904Y-94107142D01*
X148409523Y-94154761D01*
X148504761Y-94202380D01*
X148695238Y-94202380D01*
X148790476Y-94154761D01*
X148838095Y-94107142D01*
X148885714Y-94011904D01*
X148885714Y-93773809D01*
X148838095Y-93678571D01*
X148790476Y-93630952D01*
X148695238Y-93583333D01*
X148504761Y-93583333D01*
X148409523Y-93630952D01*
X148361904Y-93678571D01*
X148314285Y-93773809D01*
X126927142Y-89716666D02*
X126974761Y-89764285D01*
X127022380Y-89907142D01*
X127022380Y-90002380D01*
X126974761Y-90145238D01*
X126879523Y-90240476D01*
X126784285Y-90288095D01*
X126593809Y-90335714D01*
X126450952Y-90335714D01*
X126260476Y-90288095D01*
X126165238Y-90240476D01*
X126070000Y-90145238D01*
X126022380Y-90002380D01*
X126022380Y-89907142D01*
X126070000Y-89764285D01*
X126117619Y-89716666D01*
X126022380Y-88811904D02*
X126022380Y-89288095D01*
X126498571Y-89335714D01*
X126450952Y-89288095D01*
X126403333Y-89192857D01*
X126403333Y-88954761D01*
X126450952Y-88859523D01*
X126498571Y-88811904D01*
X126593809Y-88764285D01*
X126831904Y-88764285D01*
X126927142Y-88811904D01*
X126974761Y-88859523D01*
X127022380Y-88954761D01*
X127022380Y-89192857D01*
X126974761Y-89288095D01*
X126927142Y-89335714D01*
X120533333Y-103907142D02*
X120485714Y-103954761D01*
X120342857Y-104002380D01*
X120247619Y-104002380D01*
X120104761Y-103954761D01*
X120009523Y-103859523D01*
X119961904Y-103764285D01*
X119914285Y-103573809D01*
X119914285Y-103430952D01*
X119961904Y-103240476D01*
X120009523Y-103145238D01*
X120104761Y-103050000D01*
X120247619Y-103002380D01*
X120342857Y-103002380D01*
X120485714Y-103050000D01*
X120533333Y-103097619D01*
X121390476Y-103335714D02*
X121390476Y-104002380D01*
X121152380Y-102954761D02*
X120914285Y-103669047D01*
X121533333Y-103669047D01*
X120633333Y-97507142D02*
X120585714Y-97554761D01*
X120442857Y-97602380D01*
X120347619Y-97602380D01*
X120204761Y-97554761D01*
X120109523Y-97459523D01*
X120061904Y-97364285D01*
X120014285Y-97173809D01*
X120014285Y-97030952D01*
X120061904Y-96840476D01*
X120109523Y-96745238D01*
X120204761Y-96650000D01*
X120347619Y-96602380D01*
X120442857Y-96602380D01*
X120585714Y-96650000D01*
X120633333Y-96697619D01*
X120966666Y-96602380D02*
X121585714Y-96602380D01*
X121252380Y-96983333D01*
X121395238Y-96983333D01*
X121490476Y-97030952D01*
X121538095Y-97078571D01*
X121585714Y-97173809D01*
X121585714Y-97411904D01*
X121538095Y-97507142D01*
X121490476Y-97554761D01*
X121395238Y-97602380D01*
X121109523Y-97602380D01*
X121014285Y-97554761D01*
X120966666Y-97507142D01*
X138727142Y-111616666D02*
X138774761Y-111664285D01*
X138822380Y-111807142D01*
X138822380Y-111902380D01*
X138774761Y-112045238D01*
X138679523Y-112140476D01*
X138584285Y-112188095D01*
X138393809Y-112235714D01*
X138250952Y-112235714D01*
X138060476Y-112188095D01*
X137965238Y-112140476D01*
X137870000Y-112045238D01*
X137822380Y-111902380D01*
X137822380Y-111807142D01*
X137870000Y-111664285D01*
X137917619Y-111616666D01*
X137917619Y-111235714D02*
X137870000Y-111188095D01*
X137822380Y-111092857D01*
X137822380Y-110854761D01*
X137870000Y-110759523D01*
X137917619Y-110711904D01*
X138012857Y-110664285D01*
X138108095Y-110664285D01*
X138250952Y-110711904D01*
X138822380Y-111283333D01*
X138822380Y-110664285D01*
X147933333Y-95807142D02*
X147885714Y-95854761D01*
X147742857Y-95902380D01*
X147647619Y-95902380D01*
X147504761Y-95854761D01*
X147409523Y-95759523D01*
X147361904Y-95664285D01*
X147314285Y-95473809D01*
X147314285Y-95330952D01*
X147361904Y-95140476D01*
X147409523Y-95045238D01*
X147504761Y-94950000D01*
X147647619Y-94902380D01*
X147742857Y-94902380D01*
X147885714Y-94950000D01*
X147933333Y-94997619D01*
X148885714Y-95902380D02*
X148314285Y-95902380D01*
X148600000Y-95902380D02*
X148600000Y-94902380D01*
X148504761Y-95045238D01*
X148409523Y-95140476D01*
X148314285Y-95188095D01*
X137128571Y-69535714D02*
X137176190Y-69392857D01*
X137223809Y-69345238D01*
X137319047Y-69297619D01*
X137461904Y-69297619D01*
X137557142Y-69345238D01*
X137604761Y-69392857D01*
X137652380Y-69488095D01*
X137652380Y-69869047D01*
X136652380Y-69869047D01*
X136652380Y-69535714D01*
X136700000Y-69440476D01*
X136747619Y-69392857D01*
X136842857Y-69345238D01*
X136938095Y-69345238D01*
X137033333Y-69392857D01*
X137080952Y-69440476D01*
X137128571Y-69535714D01*
X137128571Y-69869047D01*
X136652380Y-69011904D02*
X136652380Y-68440476D01*
X137652380Y-68726190D02*
X136652380Y-68726190D01*
X137652380Y-67583333D02*
X137652380Y-68154761D01*
X137652380Y-67869047D02*
X136652380Y-67869047D01*
X136795238Y-67964285D01*
X136890476Y-68059523D01*
X136938095Y-68154761D01*
M02*
