M48
; DRILL file {KiCad 5.1.5-52549c5~84~ubuntu18.04.1} date Sun 09 Feb 2020 05:40:27 PM EST
; FORMAT={-:-/ absolute / inch / decimal}
; #@! TF.CreationDate,2020-02-09T17:40:27-05:00
; #@! TF.GenerationSoftware,Kicad,Pcbnew,5.1.5-52549c5~84~ubuntu18.04.1
; #@! TF.FileFunction,Plated,1,2,PTH
FMAT,2
INCH
T1C0.0157
T2C0.0256
T3C0.0276
T4C0.0295
%
G90
G05
T1
X4.8346Y-4.187
X5.0Y-4.2343
X5.0276Y-4.4429
X5.0512Y-3.9429
X5.063Y-4.124
X5.1181Y-2.498
X5.1201Y-4.1594
X5.122Y-3.7067
X5.1289Y-3.5797
X5.2003Y-4.8647
X5.2146Y-2.5531
X5.2165Y-4.3209
X5.2835Y-3.5197
X5.315Y-2.5098
X5.3307Y-3.5531
X5.3504Y-4.378
X5.3898Y-4.8406
X5.4094Y-4.0925
X5.4173Y-3.7697
X5.4178Y-3.7298
X5.4488Y-2.5098
X5.4606Y-2.3917
X5.4685Y-3.3642
X5.4951Y-3.5728
X5.5984Y-2.7657
X5.626Y-2.9744
X5.6378Y-2.5413
X5.6457Y-2.9075
X5.6496Y-2.8209
X5.6575Y-3.9429
X5.6772Y-3.8041
X5.6772Y-4.439
X5.6939Y-3.5059
X5.7953Y-3.6476
X5.8228Y-4.3996
X5.8465Y-4.2382
X5.8819Y-3.6555
X5.9093Y-3.6888
X5.9446Y-3.6626
X5.9764Y-3.8917
X6.1181Y-3.2776
X6.126Y-3.1634
X6.2126Y-3.439
X6.2441Y-3.8878
X6.2559Y-3.624
X6.2717Y-3.1555
X6.2795Y-3.0453
X6.4173Y-3.0335
X6.4173Y-4.4862
X6.4213Y-3.2539
X6.5787Y-3.3209
X6.7913Y-3.9783
T4
X5.2874Y-2.6673
X5.2874Y-2.7461
T2
G00X4.8341Y-2.9333
M15
G01X4.8498Y-2.9333
M16
G05
G00X4.8341Y-3.1238
M15
G01X4.8498Y-3.1238
M16
G05
T3
G00X4.714Y-2.9211
M15
G01X4.7337Y-2.9211
M16
G05
G00X4.714Y-3.136
M15
G01X4.7337Y-3.136
M16
G05
T0
M30
