G04 #@! TF.GenerationSoftware,KiCad,Pcbnew,5.1.5-52549c5~84~ubuntu18.04.1*
G04 #@! TF.CreationDate,2020-02-09T17:39:49-05:00*
G04 #@! TF.ProjectId,SoundBoard,536f756e-6442-46f6-9172-642e6b696361,rev?*
G04 #@! TF.SameCoordinates,Original*
G04 #@! TF.FileFunction,Soldermask,Bot*
G04 #@! TF.FilePolarity,Negative*
%FSLAX46Y46*%
G04 Gerber Fmt 4.6, Leading zero omitted, Abs format (unit mm)*
G04 Created by KiCad (PCBNEW 5.1.5-52549c5~84~ubuntu18.04.1) date 2020-02-09 17:39:49*
%MOMM*%
%LPD*%
G04 APERTURE LIST*
%ADD10C,0.100000*%
G04 APERTURE END LIST*
D10*
G36*
X120231213Y-78932502D02*
G01*
X120302321Y-78939505D01*
X120439172Y-78981019D01*
X120439175Y-78981020D01*
X120565294Y-79048432D01*
X120675843Y-79139157D01*
X120766568Y-79249706D01*
X120833980Y-79375825D01*
X120833981Y-79375828D01*
X120875495Y-79512679D01*
X120889512Y-79655000D01*
X120875495Y-79797321D01*
X120860385Y-79847130D01*
X120833980Y-79934175D01*
X120766568Y-80060294D01*
X120675843Y-80170843D01*
X120565294Y-80261568D01*
X120439175Y-80328980D01*
X120439172Y-80328981D01*
X120302321Y-80370495D01*
X120231213Y-80377498D01*
X120195660Y-80381000D01*
X119774340Y-80381000D01*
X119738787Y-80377498D01*
X119667679Y-80370495D01*
X119530828Y-80328981D01*
X119530825Y-80328980D01*
X119404706Y-80261568D01*
X119294157Y-80170843D01*
X119203432Y-80060294D01*
X119136020Y-79934175D01*
X119109615Y-79847130D01*
X119094505Y-79797321D01*
X119080488Y-79655000D01*
X119094505Y-79512679D01*
X119136019Y-79375828D01*
X119136020Y-79375825D01*
X119203432Y-79249706D01*
X119294157Y-79139157D01*
X119404706Y-79048432D01*
X119530825Y-78981020D01*
X119530828Y-78981019D01*
X119667679Y-78939505D01*
X119738787Y-78932502D01*
X119774340Y-78929000D01*
X120195660Y-78929000D01*
X120231213Y-78932502D01*
G37*
G36*
X123302818Y-78752696D02*
G01*
X123416105Y-78787062D01*
X123520512Y-78842869D01*
X123612027Y-78917973D01*
X123687131Y-79009488D01*
X123742938Y-79113895D01*
X123777304Y-79227182D01*
X123788907Y-79345000D01*
X123777304Y-79462818D01*
X123742938Y-79576105D01*
X123687131Y-79680512D01*
X123612027Y-79772027D01*
X123520512Y-79847131D01*
X123416105Y-79902938D01*
X123302818Y-79937304D01*
X123214519Y-79946000D01*
X122755481Y-79946000D01*
X122667182Y-79937304D01*
X122553895Y-79902938D01*
X122449488Y-79847131D01*
X122357973Y-79772027D01*
X122282869Y-79680512D01*
X122227062Y-79576105D01*
X122192696Y-79462818D01*
X122181093Y-79345000D01*
X122192696Y-79227182D01*
X122227062Y-79113895D01*
X122282869Y-79009488D01*
X122357973Y-78917973D01*
X122449488Y-78842869D01*
X122553895Y-78787062D01*
X122667182Y-78752696D01*
X122755481Y-78744000D01*
X123214519Y-78744000D01*
X123302818Y-78752696D01*
G37*
G36*
X123302818Y-73912696D02*
G01*
X123416105Y-73947062D01*
X123520512Y-74002869D01*
X123612027Y-74077973D01*
X123687131Y-74169488D01*
X123742938Y-74273895D01*
X123777304Y-74387182D01*
X123788907Y-74505000D01*
X123777304Y-74622818D01*
X123742938Y-74736105D01*
X123687131Y-74840512D01*
X123612027Y-74932027D01*
X123520512Y-75007131D01*
X123416105Y-75062938D01*
X123302818Y-75097304D01*
X123214519Y-75106000D01*
X122755481Y-75106000D01*
X122667182Y-75097304D01*
X122553895Y-75062938D01*
X122449488Y-75007131D01*
X122357973Y-74932027D01*
X122282869Y-74840512D01*
X122227062Y-74736105D01*
X122192696Y-74622818D01*
X122181093Y-74505000D01*
X122192696Y-74387182D01*
X122227062Y-74273895D01*
X122282869Y-74169488D01*
X122357973Y-74077973D01*
X122449488Y-74002869D01*
X122553895Y-73947062D01*
X122667182Y-73912696D01*
X122755481Y-73904000D01*
X123214519Y-73904000D01*
X123302818Y-73912696D01*
G37*
G36*
X120231213Y-73472502D02*
G01*
X120302321Y-73479505D01*
X120439172Y-73521019D01*
X120439175Y-73521020D01*
X120565294Y-73588432D01*
X120675843Y-73679157D01*
X120766568Y-73789706D01*
X120833980Y-73915825D01*
X120833981Y-73915828D01*
X120875495Y-74052679D01*
X120889512Y-74195000D01*
X120875495Y-74337321D01*
X120860369Y-74387184D01*
X120833980Y-74474175D01*
X120766568Y-74600294D01*
X120675843Y-74710843D01*
X120565294Y-74801568D01*
X120439175Y-74868980D01*
X120439172Y-74868981D01*
X120302321Y-74910495D01*
X120231213Y-74917498D01*
X120195660Y-74921000D01*
X119774340Y-74921000D01*
X119738787Y-74917498D01*
X119667679Y-74910495D01*
X119530828Y-74868981D01*
X119530825Y-74868980D01*
X119404706Y-74801568D01*
X119294157Y-74710843D01*
X119203432Y-74600294D01*
X119136020Y-74474175D01*
X119109631Y-74387184D01*
X119094505Y-74337321D01*
X119080488Y-74195000D01*
X119094505Y-74052679D01*
X119136019Y-73915828D01*
X119136020Y-73915825D01*
X119203432Y-73789706D01*
X119294157Y-73679157D01*
X119404706Y-73588432D01*
X119530825Y-73521020D01*
X119530828Y-73521019D01*
X119667679Y-73479505D01*
X119738787Y-73472502D01*
X119774340Y-73469000D01*
X120195660Y-73469000D01*
X120231213Y-73472502D01*
G37*
G36*
X134638855Y-69102140D02*
G01*
X134702618Y-69108420D01*
X134793404Y-69135960D01*
X134825336Y-69145646D01*
X134938425Y-69206094D01*
X135037554Y-69287446D01*
X135118906Y-69386575D01*
X135179354Y-69499664D01*
X135179355Y-69499668D01*
X135216580Y-69622382D01*
X135229149Y-69750000D01*
X135216580Y-69877618D01*
X135189040Y-69968404D01*
X135179354Y-70000336D01*
X135118906Y-70113425D01*
X135037554Y-70212554D01*
X134938425Y-70293906D01*
X134825336Y-70354354D01*
X134793404Y-70364040D01*
X134702618Y-70391580D01*
X134638855Y-70397860D01*
X134606974Y-70401000D01*
X133993026Y-70401000D01*
X133961145Y-70397860D01*
X133897382Y-70391580D01*
X133806596Y-70364040D01*
X133774664Y-70354354D01*
X133661575Y-70293906D01*
X133562446Y-70212554D01*
X133481094Y-70113425D01*
X133420646Y-70000336D01*
X133410960Y-69968404D01*
X133383420Y-69877618D01*
X133370851Y-69750000D01*
X133383420Y-69622382D01*
X133420645Y-69499668D01*
X133420646Y-69499664D01*
X133481094Y-69386575D01*
X133562446Y-69287446D01*
X133661575Y-69206094D01*
X133774664Y-69145646D01*
X133806596Y-69135960D01*
X133897382Y-69108420D01*
X133961145Y-69102140D01*
X133993026Y-69099000D01*
X134606974Y-69099000D01*
X134638855Y-69102140D01*
G37*
G36*
X135066242Y-67103404D02*
G01*
X135103337Y-67114657D01*
X135137515Y-67132925D01*
X135167481Y-67157519D01*
X135192075Y-67187485D01*
X135210343Y-67221663D01*
X135221596Y-67258758D01*
X135226000Y-67303474D01*
X135226000Y-68196526D01*
X135221596Y-68241242D01*
X135210343Y-68278337D01*
X135192075Y-68312515D01*
X135167481Y-68342481D01*
X135137515Y-68367075D01*
X135103337Y-68385343D01*
X135066242Y-68396596D01*
X135021526Y-68401000D01*
X133578474Y-68401000D01*
X133533758Y-68396596D01*
X133496663Y-68385343D01*
X133462485Y-68367075D01*
X133432519Y-68342481D01*
X133407925Y-68312515D01*
X133389657Y-68278337D01*
X133378404Y-68241242D01*
X133374000Y-68196526D01*
X133374000Y-67303474D01*
X133378404Y-67258758D01*
X133389657Y-67221663D01*
X133407925Y-67187485D01*
X133432519Y-67157519D01*
X133462485Y-67132925D01*
X133496663Y-67114657D01*
X133533758Y-67103404D01*
X133578474Y-67099000D01*
X135021526Y-67099000D01*
X135066242Y-67103404D01*
G37*
M02*
