M48
; DRILL file {KiCad 5.1.5-52549c5~86~ubuntu18.04.1} date Wed 13 May 2020 03:12:24 PM EDT
; FORMAT={-:-/ absolute / inch / decimal}
; #@! TF.CreationDate,2020-05-13T15:12:24-04:00
; #@! TF.GenerationSoftware,Kicad,Pcbnew,5.1.5-52549c5~86~ubuntu18.04.1
; #@! TF.FileFunction,Plated,1,4,PTH
FMAT,2
INCH
T1C0.0157
T2C0.0256
T3C0.0276
T4C0.0315
T5C0.1693
%
G90
G05
T1
X2.4803Y-4.1339
X2.4803Y-4.252
X2.4803Y-4.3701
X2.4803Y-4.4882
X2.4803Y-4.9606
X2.4803Y-5.0787
X2.5984Y-4.1339
X2.6024Y-4.7795
X2.6378Y-4.9606
X2.6378Y-5.0787
X2.7559Y-4.3307
X2.7559Y-4.4488
X2.8346Y-3.7008
X2.8346Y-3.8189
X2.8543Y-4.5512
X2.874Y-5.315
X2.874Y-5.4724
X2.8898Y-4.5748
X2.8898Y-4.9094
X2.9158Y-4.9077
X2.9528Y-3.7008
X2.9528Y-3.8189
X2.9705Y-4.9213
X3.0118Y-4.689
X3.0472Y-4.6614
X3.0709Y-3.7008
X3.0709Y-3.8189
X3.0709Y-4.5276
X3.1102Y-5.4724
X3.189Y-3.7008
X3.2392Y-5.1132
X3.2441Y-5.0669
X3.248Y-4.9764
X3.2598Y-4.5039
X3.2677Y-4.7244
X3.2795Y-4.2992
X3.3071Y-3.7008
X3.311Y-4.5
X3.3275Y-4.5533
X3.3425Y-4.2992
X3.3465Y-5.4724
X3.3622Y-4.8819
X3.4252Y-3.7008
X3.4449Y-4.9134
X3.4676Y-4.8758
X3.4843Y-4.2913
X3.5433Y-3.7008
X3.5827Y-5.4724
X3.5906Y-4.7913
X3.6063Y-4.5984
X3.6063Y-4.6339
X3.6102Y-4.6772
X3.622Y-4.4882
X3.6614Y-3.7008
X3.6614Y-3.8189
X3.7008Y-4.8031
X3.7795Y-3.7008
X3.7795Y-3.8189
X3.7795Y-4.0945
X3.8189Y-5.4724
X3.8543Y-4.2205
X3.8898Y-4.3386
X3.8976Y-3.9764
X3.8976Y-4.0945
X3.8976Y-4.8031
X3.9173Y-4.937
X3.9173Y-4.9764
X4.0157Y-4.0945
X4.0591Y-4.2283
X4.0945Y-4.8031
X4.1339Y-4.0945
X4.252Y-4.0945
X4.252Y-4.2126
X4.252Y-4.3307
X4.252Y-4.4488
X4.252Y-4.5669
X4.252Y-4.685
X4.252Y-4.8031
X4.252Y-4.9213
X4.252Y-5.0394
X4.252Y-5.1575
T4
X2.811Y-4.9961
X2.8543Y-4.8346
X2.9646Y-4.2323
X2.9843Y-3.9921
X2.9843Y-4.0433
X3.0079Y-4.3189
X3.0669Y-3.9331
X3.0669Y-3.9882
X3.0669Y-4.0394
X3.0669Y-4.0906
X3.1378Y-4.126
X3.1811Y-4.126
X3.3386Y-5.0827
X3.3504Y-5.1811
X3.5945Y-3.9173
X3.6772Y-4.0276
X3.6929Y-4.6142
X3.7087Y-4.1929
X4.0394Y-4.4173
T5
X4.0866Y-3.8346
X4.0866Y-5.3307
X2.5906Y-3.8346
X2.5906Y-5.3307
T2
G00X2.5309Y-4.6281
M15
G01X2.5467Y-4.6281
M16
G05
G00X2.5309Y-4.8187
M15
G01X2.5467Y-4.8187
M16
G05
T3
G00X2.4108Y-4.6159
M15
G01X2.4305Y-4.6159
M16
G05
G00X2.4108Y-4.8309
M15
G01X2.4305Y-4.8309
M16
G05
T0
M30
