G04 #@! TF.GenerationSoftware,KiCad,Pcbnew,5.1.5-52549c5~86~ubuntu18.04.1*
G04 #@! TF.CreationDate,2020-05-13T15:42:22-04:00*
G04 #@! TF.ProjectId,SoundBoard,536f756e-6442-46f6-9172-642e6b696361,rev?*
G04 #@! TF.SameCoordinates,Original*
G04 #@! TF.FileFunction,Soldermask,Bot*
G04 #@! TF.FilePolarity,Negative*
%FSLAX46Y46*%
G04 Gerber Fmt 4.6, Leading zero omitted, Abs format (unit mm)*
G04 Created by KiCad (PCBNEW 5.1.5-52549c5~86~ubuntu18.04.1) date 2020-05-13 15:42:22*
%MOMM*%
%LPD*%
G04 APERTURE LIST*
%ADD10C,0.100000*%
G04 APERTURE END LIST*
D10*
G36*
X104348156Y-131072794D02*
G01*
X105069140Y-131216206D01*
X105860972Y-131544193D01*
X106573601Y-132020357D01*
X107179643Y-132626399D01*
X107655807Y-133339028D01*
X107983794Y-134130860D01*
X108151000Y-134971464D01*
X108151000Y-135828536D01*
X107983794Y-136669140D01*
X107655807Y-137460972D01*
X107179643Y-138173601D01*
X106573601Y-138779643D01*
X105860972Y-139255807D01*
X105069140Y-139583794D01*
X104348156Y-139727206D01*
X104228537Y-139751000D01*
X103371463Y-139751000D01*
X103251844Y-139727206D01*
X102530860Y-139583794D01*
X101739028Y-139255807D01*
X101026399Y-138779643D01*
X100420357Y-138173601D01*
X99944193Y-137460972D01*
X99616206Y-136669140D01*
X99449000Y-135828536D01*
X99449000Y-134971464D01*
X99616206Y-134130860D01*
X99944193Y-133339028D01*
X100420357Y-132626399D01*
X101026399Y-132020357D01*
X101739028Y-131544193D01*
X102530860Y-131216206D01*
X103251844Y-131072794D01*
X103371463Y-131049000D01*
X104228537Y-131049000D01*
X104348156Y-131072794D01*
G37*
G36*
X66348156Y-131072794D02*
G01*
X67069140Y-131216206D01*
X67860972Y-131544193D01*
X68573601Y-132020357D01*
X69179643Y-132626399D01*
X69655807Y-133339028D01*
X69983794Y-134130860D01*
X70151000Y-134971464D01*
X70151000Y-135828536D01*
X69983794Y-136669140D01*
X69655807Y-137460972D01*
X69179643Y-138173601D01*
X68573601Y-138779643D01*
X67860972Y-139255807D01*
X67069140Y-139583794D01*
X66348156Y-139727206D01*
X66228537Y-139751000D01*
X65371463Y-139751000D01*
X65251844Y-139727206D01*
X64530860Y-139583794D01*
X63739028Y-139255807D01*
X63026399Y-138779643D01*
X62420357Y-138173601D01*
X61944193Y-137460972D01*
X61616206Y-136669140D01*
X61449000Y-135828536D01*
X61449000Y-134971464D01*
X61616206Y-134130860D01*
X61944193Y-133339028D01*
X62420357Y-132626399D01*
X63026399Y-132020357D01*
X63739028Y-131544193D01*
X64530860Y-131216206D01*
X65251844Y-131072794D01*
X65371463Y-131049000D01*
X66228537Y-131049000D01*
X66348156Y-131072794D01*
G37*
G36*
X61731213Y-121982502D02*
G01*
X61802321Y-121989505D01*
X61939172Y-122031019D01*
X61939175Y-122031020D01*
X62065294Y-122098432D01*
X62175843Y-122189157D01*
X62266568Y-122299706D01*
X62333980Y-122425825D01*
X62333981Y-122425828D01*
X62375495Y-122562679D01*
X62389512Y-122705000D01*
X62375495Y-122847321D01*
X62360385Y-122897130D01*
X62333980Y-122984175D01*
X62266568Y-123110294D01*
X62175843Y-123220843D01*
X62065294Y-123311568D01*
X61939175Y-123378980D01*
X61939172Y-123378981D01*
X61802321Y-123420495D01*
X61731213Y-123427498D01*
X61695660Y-123431000D01*
X61274340Y-123431000D01*
X61238787Y-123427498D01*
X61167679Y-123420495D01*
X61030828Y-123378981D01*
X61030825Y-123378980D01*
X60904706Y-123311568D01*
X60794157Y-123220843D01*
X60703432Y-123110294D01*
X60636020Y-122984175D01*
X60609615Y-122897130D01*
X60594505Y-122847321D01*
X60580488Y-122705000D01*
X60594505Y-122562679D01*
X60636019Y-122425828D01*
X60636020Y-122425825D01*
X60703432Y-122299706D01*
X60794157Y-122189157D01*
X60904706Y-122098432D01*
X61030825Y-122031020D01*
X61030828Y-122031019D01*
X61167679Y-121989505D01*
X61238787Y-121982502D01*
X61274340Y-121979000D01*
X61695660Y-121979000D01*
X61731213Y-121982502D01*
G37*
G36*
X64802818Y-121802696D02*
G01*
X64916105Y-121837062D01*
X65020512Y-121892869D01*
X65112027Y-121967973D01*
X65187131Y-122059488D01*
X65242938Y-122163895D01*
X65277304Y-122277182D01*
X65288907Y-122395000D01*
X65277304Y-122512818D01*
X65242938Y-122626105D01*
X65187131Y-122730512D01*
X65112027Y-122822027D01*
X65020512Y-122897131D01*
X64916105Y-122952938D01*
X64802818Y-122987304D01*
X64714519Y-122996000D01*
X64255481Y-122996000D01*
X64167182Y-122987304D01*
X64053895Y-122952938D01*
X63949488Y-122897131D01*
X63857973Y-122822027D01*
X63782869Y-122730512D01*
X63727062Y-122626105D01*
X63692696Y-122512818D01*
X63681093Y-122395000D01*
X63692696Y-122277182D01*
X63727062Y-122163895D01*
X63782869Y-122059488D01*
X63857973Y-121967973D01*
X63949488Y-121892869D01*
X64053895Y-121837062D01*
X64167182Y-121802696D01*
X64255481Y-121794000D01*
X64714519Y-121794000D01*
X64802818Y-121802696D01*
G37*
G36*
X64802818Y-116962696D02*
G01*
X64916105Y-116997062D01*
X65020512Y-117052869D01*
X65112027Y-117127973D01*
X65187131Y-117219488D01*
X65242938Y-117323895D01*
X65277304Y-117437182D01*
X65288907Y-117555000D01*
X65277304Y-117672818D01*
X65242938Y-117786105D01*
X65187131Y-117890512D01*
X65112027Y-117982027D01*
X65020512Y-118057131D01*
X64916105Y-118112938D01*
X64802818Y-118147304D01*
X64714519Y-118156000D01*
X64255481Y-118156000D01*
X64167182Y-118147304D01*
X64053895Y-118112938D01*
X63949488Y-118057131D01*
X63857973Y-117982027D01*
X63782869Y-117890512D01*
X63727062Y-117786105D01*
X63692696Y-117672818D01*
X63681093Y-117555000D01*
X63692696Y-117437182D01*
X63727062Y-117323895D01*
X63782869Y-117219488D01*
X63857973Y-117127973D01*
X63949488Y-117052869D01*
X64053895Y-116997062D01*
X64167182Y-116962696D01*
X64255481Y-116954000D01*
X64714519Y-116954000D01*
X64802818Y-116962696D01*
G37*
G36*
X61731213Y-116522502D02*
G01*
X61802321Y-116529505D01*
X61939172Y-116571019D01*
X61939175Y-116571020D01*
X62065294Y-116638432D01*
X62175843Y-116729157D01*
X62266568Y-116839706D01*
X62333980Y-116965825D01*
X62333981Y-116965828D01*
X62375495Y-117102679D01*
X62389512Y-117245000D01*
X62375495Y-117387321D01*
X62360369Y-117437184D01*
X62333980Y-117524175D01*
X62266568Y-117650294D01*
X62175843Y-117760843D01*
X62065294Y-117851568D01*
X61939175Y-117918980D01*
X61939172Y-117918981D01*
X61802321Y-117960495D01*
X61731213Y-117967498D01*
X61695660Y-117971000D01*
X61274340Y-117971000D01*
X61238787Y-117967498D01*
X61167679Y-117960495D01*
X61030828Y-117918981D01*
X61030825Y-117918980D01*
X60904706Y-117851568D01*
X60794157Y-117760843D01*
X60703432Y-117650294D01*
X60636020Y-117524175D01*
X60609631Y-117437184D01*
X60594505Y-117387321D01*
X60580488Y-117245000D01*
X60594505Y-117102679D01*
X60636019Y-116965828D01*
X60636020Y-116965825D01*
X60703432Y-116839706D01*
X60794157Y-116729157D01*
X60904706Y-116638432D01*
X61030825Y-116571020D01*
X61030828Y-116571019D01*
X61167679Y-116529505D01*
X61238787Y-116522502D01*
X61274340Y-116519000D01*
X61695660Y-116519000D01*
X61731213Y-116522502D01*
G37*
G36*
X104348156Y-93072794D02*
G01*
X105069140Y-93216206D01*
X105860972Y-93544193D01*
X106573601Y-94020357D01*
X107179643Y-94626399D01*
X107655807Y-95339028D01*
X107983794Y-96130860D01*
X108151000Y-96971464D01*
X108151000Y-97828536D01*
X107983794Y-98669140D01*
X107655807Y-99460972D01*
X107179643Y-100173601D01*
X106573601Y-100779643D01*
X105860972Y-101255807D01*
X105069140Y-101583794D01*
X104348156Y-101727206D01*
X104228537Y-101751000D01*
X103371463Y-101751000D01*
X103251844Y-101727206D01*
X102530860Y-101583794D01*
X101739028Y-101255807D01*
X101026399Y-100779643D01*
X100420357Y-100173601D01*
X99944193Y-99460972D01*
X99616206Y-98669140D01*
X99449000Y-97828536D01*
X99449000Y-96971464D01*
X99616206Y-96130860D01*
X99944193Y-95339028D01*
X100420357Y-94626399D01*
X101026399Y-94020357D01*
X101739028Y-93544193D01*
X102530860Y-93216206D01*
X103251844Y-93072794D01*
X103371463Y-93049000D01*
X104228537Y-93049000D01*
X104348156Y-93072794D01*
G37*
G36*
X66348156Y-93072794D02*
G01*
X67069140Y-93216206D01*
X67860972Y-93544193D01*
X68573601Y-94020357D01*
X69179643Y-94626399D01*
X69655807Y-95339028D01*
X69983794Y-96130860D01*
X70151000Y-96971464D01*
X70151000Y-97828536D01*
X69983794Y-98669140D01*
X69655807Y-99460972D01*
X69179643Y-100173601D01*
X68573601Y-100779643D01*
X67860972Y-101255807D01*
X67069140Y-101583794D01*
X66348156Y-101727206D01*
X66228537Y-101751000D01*
X65371463Y-101751000D01*
X65251844Y-101727206D01*
X64530860Y-101583794D01*
X63739028Y-101255807D01*
X63026399Y-100779643D01*
X62420357Y-100173601D01*
X61944193Y-99460972D01*
X61616206Y-98669140D01*
X61449000Y-97828536D01*
X61449000Y-96971464D01*
X61616206Y-96130860D01*
X61944193Y-95339028D01*
X62420357Y-94626399D01*
X63026399Y-94020357D01*
X63739028Y-93544193D01*
X64530860Y-93216206D01*
X65251844Y-93072794D01*
X65371463Y-93049000D01*
X66228537Y-93049000D01*
X66348156Y-93072794D01*
G37*
M02*
