G04 #@! TF.GenerationSoftware,KiCad,Pcbnew,5.1.5-52549c5~84~ubuntu18.04.1*
G04 #@! TF.CreationDate,2020-02-09T17:39:49-05:00*
G04 #@! TF.ProjectId,SoundBoard,536f756e-6442-46f6-9172-642e6b696361,rev?*
G04 #@! TF.SameCoordinates,Original*
G04 #@! TF.FileFunction,Copper,L2,Bot*
G04 #@! TF.FilePolarity,Positive*
%FSLAX46Y46*%
G04 Gerber Fmt 4.6, Leading zero omitted, Abs format (unit mm)*
G04 Created by KiCad (PCBNEW 5.1.5-52549c5~84~ubuntu18.04.1) date 2020-02-09 17:39:49*
%MOMM*%
%LPD*%
G04 APERTURE LIST*
%ADD10O,1.700000X1.350000*%
%ADD11O,1.500000X1.100000*%
%ADD12O,1.750000X1.200000*%
%ADD13C,0.100000*%
%ADD14C,0.800000*%
%ADD15C,0.250000*%
%ADD16C,0.254000*%
G04 APERTURE END LIST*
D10*
X119985000Y-79655000D03*
X119985000Y-74195000D03*
D11*
X122985000Y-79345000D03*
X122985000Y-74505000D03*
D12*
X134300000Y-69750000D03*
G04 #@! TA.AperFunction,ComponentPad*
D13*
G36*
X134949505Y-67151204D02*
G01*
X134973773Y-67154804D01*
X134997572Y-67160765D01*
X135020671Y-67169030D01*
X135042850Y-67179520D01*
X135063893Y-67192132D01*
X135083599Y-67206747D01*
X135101777Y-67223223D01*
X135118253Y-67241401D01*
X135132868Y-67261107D01*
X135145480Y-67282150D01*
X135155970Y-67304329D01*
X135164235Y-67327428D01*
X135170196Y-67351227D01*
X135173796Y-67375495D01*
X135175000Y-67399999D01*
X135175000Y-68100001D01*
X135173796Y-68124505D01*
X135170196Y-68148773D01*
X135164235Y-68172572D01*
X135155970Y-68195671D01*
X135145480Y-68217850D01*
X135132868Y-68238893D01*
X135118253Y-68258599D01*
X135101777Y-68276777D01*
X135083599Y-68293253D01*
X135063893Y-68307868D01*
X135042850Y-68320480D01*
X135020671Y-68330970D01*
X134997572Y-68339235D01*
X134973773Y-68345196D01*
X134949505Y-68348796D01*
X134925001Y-68350000D01*
X133674999Y-68350000D01*
X133650495Y-68348796D01*
X133626227Y-68345196D01*
X133602428Y-68339235D01*
X133579329Y-68330970D01*
X133557150Y-68320480D01*
X133536107Y-68307868D01*
X133516401Y-68293253D01*
X133498223Y-68276777D01*
X133481747Y-68258599D01*
X133467132Y-68238893D01*
X133454520Y-68217850D01*
X133444030Y-68195671D01*
X133435765Y-68172572D01*
X133429804Y-68148773D01*
X133426204Y-68124505D01*
X133425000Y-68100001D01*
X133425000Y-67399999D01*
X133426204Y-67375495D01*
X133429804Y-67351227D01*
X133435765Y-67327428D01*
X133444030Y-67304329D01*
X133454520Y-67282150D01*
X133467132Y-67261107D01*
X133481747Y-67241401D01*
X133498223Y-67223223D01*
X133516401Y-67206747D01*
X133536107Y-67192132D01*
X133557150Y-67179520D01*
X133579329Y-67169030D01*
X133602428Y-67160765D01*
X133626227Y-67154804D01*
X133650495Y-67151204D01*
X133674999Y-67150000D01*
X134925001Y-67150000D01*
X134949505Y-67151204D01*
G37*
G04 #@! TD.AperFunction*
D14*
X172500000Y-101050000D03*
X167100000Y-84350000D03*
X163100000Y-82650000D03*
X163000000Y-77050000D03*
X159300000Y-80150000D03*
X138900000Y-85450000D03*
X122800000Y-106350000D03*
X130100000Y-94150000D03*
X147200000Y-92650000D03*
X144200000Y-112750000D03*
X163000000Y-113950000D03*
X143500000Y-71650000D03*
X142900000Y-75550000D03*
X138700000Y-60750000D03*
X138400000Y-63750000D03*
X135000000Y-63750000D03*
X132087340Y-123562660D03*
X127700000Y-112850000D03*
X127000000Y-107550000D03*
X151800000Y-98850000D03*
X142200000Y-70250000D03*
X143200000Y-64550000D03*
X135400000Y-90250000D03*
X128300000Y-100150000D03*
X137400000Y-103950000D03*
X136900000Y-122950000D03*
X137612651Y-94737346D03*
X158900000Y-92050000D03*
X158600000Y-98750000D03*
X137600000Y-95750000D03*
X148500000Y-107650000D03*
X128600000Y-104750000D03*
X157800000Y-87350000D03*
X155400000Y-83250000D03*
X139575000Y-90750000D03*
X144625000Y-89050000D03*
X135900000Y-111200000D03*
X130050000Y-105650000D03*
X143700000Y-100150000D03*
X147900000Y-111750000D03*
X132500000Y-109750000D03*
X143400000Y-73850001D03*
X144200000Y-96625000D03*
X149400000Y-92850000D03*
X155600000Y-80350000D03*
X150992914Y-93031065D03*
X159500000Y-77350000D03*
X150095769Y-93694547D03*
X134200000Y-89400000D03*
X130000000Y-63450000D03*
X132449990Y-64850000D03*
X130275153Y-90925153D03*
D15*
X167100000Y-84350000D02*
X166700000Y-84750000D01*
X142200000Y-70250000D02*
X143200000Y-69250000D01*
X143200000Y-69250000D02*
X143200000Y-64550000D01*
X135400000Y-90815685D02*
X128300000Y-97915685D01*
X135400000Y-90250000D02*
X135400000Y-90815685D01*
X128300000Y-97915685D02*
X128300000Y-100150000D01*
X137400000Y-103950000D02*
X137400000Y-122450000D01*
X137400000Y-122450000D02*
X136900000Y-122950000D01*
X137612651Y-94737346D02*
X156212654Y-94737346D01*
X156212654Y-94737346D02*
X158900000Y-92050000D01*
X155600000Y-95750000D02*
X138165685Y-95750000D01*
X158600000Y-98750000D02*
X155600000Y-95750000D01*
X138165685Y-95750000D02*
X137600000Y-95750000D01*
X128999999Y-104350001D02*
X128600000Y-104750000D01*
X148500000Y-103876998D02*
X144048001Y-99424999D01*
X148500000Y-107650000D02*
X148500000Y-103876998D01*
X144048001Y-99424999D02*
X133925001Y-99424999D01*
X133925001Y-99424999D02*
X128999999Y-104350001D01*
X157234315Y-87350000D02*
X155000000Y-85115685D01*
X157800000Y-87350000D02*
X157234315Y-87350000D01*
X155000000Y-85115685D02*
X155000000Y-83650000D01*
X155000000Y-83650000D02*
X155400000Y-83250000D01*
X139575000Y-90750000D02*
X141275000Y-89050000D01*
X141275000Y-89050000D02*
X144625000Y-89050000D01*
X135900000Y-111200000D02*
X130350000Y-105650000D01*
X130350000Y-105650000D02*
X130050000Y-105650000D01*
X143700000Y-100715685D02*
X144300000Y-101315685D01*
X143700000Y-100150000D02*
X143700000Y-100715685D01*
X144300000Y-101315685D02*
X144300000Y-108150000D01*
X144300000Y-108150000D02*
X147900000Y-111750000D01*
X149400000Y-79850001D02*
X149400000Y-92284315D01*
X143400000Y-73850001D02*
X149400000Y-79850001D01*
X149400000Y-92284315D02*
X149400000Y-92850000D01*
X143800001Y-96225001D02*
X144200000Y-96625000D01*
X138298001Y-96225001D02*
X143800001Y-96225001D01*
X137848001Y-96675001D02*
X138298001Y-96225001D01*
X132500000Y-109750000D02*
X127874999Y-105124999D01*
X135574999Y-96675001D02*
X137848001Y-96675001D01*
X127874999Y-105124999D02*
X127874999Y-104375001D01*
X127874999Y-104375001D02*
X135574999Y-96675001D01*
X150800000Y-92838151D02*
X150992914Y-93031065D01*
X150800000Y-85950000D02*
X150800000Y-92838151D01*
X155600000Y-80350000D02*
X155600000Y-81150000D01*
X155600000Y-81150000D02*
X150800000Y-85950000D01*
X150095769Y-93128862D02*
X150095769Y-93694547D01*
X159500000Y-77350000D02*
X157526998Y-77350000D01*
X150095769Y-92472767D02*
X150125001Y-92501999D01*
X150095769Y-84781229D02*
X150095769Y-92472767D01*
X150125001Y-92501999D02*
X150125001Y-93099630D01*
X150125001Y-93099630D02*
X150095769Y-93128862D01*
X157526998Y-77350000D02*
X150095769Y-84781229D01*
X132122992Y-63450000D02*
X130000000Y-63450000D01*
X136200000Y-67527008D02*
X132122992Y-63450000D01*
X134200000Y-89400000D02*
X136200000Y-87400000D01*
X136200000Y-87400000D02*
X136200000Y-67527008D01*
X132900000Y-88300306D02*
X130275153Y-90925153D01*
X132449990Y-65415685D02*
X132900000Y-65865695D01*
X132900000Y-65865695D02*
X132900000Y-88300306D01*
X132449990Y-64850000D02*
X132449990Y-65415685D01*
D16*
G36*
X174140001Y-128990000D02*
G01*
X118960000Y-128990000D01*
X118960000Y-104375001D01*
X127111323Y-104375001D01*
X127114999Y-104412323D01*
X127114999Y-105087677D01*
X127111323Y-105124999D01*
X127114999Y-105162321D01*
X127114999Y-105162331D01*
X127125996Y-105273984D01*
X127151407Y-105357753D01*
X127169453Y-105417245D01*
X127240025Y-105549275D01*
X127279870Y-105597825D01*
X127334998Y-105665000D01*
X127364002Y-105688803D01*
X131465000Y-109789802D01*
X131465000Y-109851939D01*
X131504774Y-110051898D01*
X131582795Y-110240256D01*
X131696063Y-110409774D01*
X131840226Y-110553937D01*
X132009744Y-110667205D01*
X132198102Y-110745226D01*
X132398061Y-110785000D01*
X132601939Y-110785000D01*
X132801898Y-110745226D01*
X132990256Y-110667205D01*
X133159774Y-110553937D01*
X133303937Y-110409774D01*
X133417205Y-110240256D01*
X133495226Y-110051898D01*
X133525400Y-109900202D01*
X134865000Y-111239802D01*
X134865000Y-111301939D01*
X134904774Y-111501898D01*
X134982795Y-111690256D01*
X135096063Y-111859774D01*
X135240226Y-112003937D01*
X135409744Y-112117205D01*
X135598102Y-112195226D01*
X135798061Y-112235000D01*
X136001939Y-112235000D01*
X136201898Y-112195226D01*
X136390256Y-112117205D01*
X136559774Y-112003937D01*
X136640000Y-111923711D01*
X136640001Y-121946440D01*
X136598102Y-121954774D01*
X136409744Y-122032795D01*
X136240226Y-122146063D01*
X136096063Y-122290226D01*
X135982795Y-122459744D01*
X135904774Y-122648102D01*
X135865000Y-122848061D01*
X135865000Y-123051939D01*
X135904774Y-123251898D01*
X135982795Y-123440256D01*
X136096063Y-123609774D01*
X136240226Y-123753937D01*
X136409744Y-123867205D01*
X136598102Y-123945226D01*
X136798061Y-123985000D01*
X137001939Y-123985000D01*
X137201898Y-123945226D01*
X137390256Y-123867205D01*
X137559774Y-123753937D01*
X137703937Y-123609774D01*
X137817205Y-123440256D01*
X137895226Y-123251898D01*
X137935000Y-123051939D01*
X137935000Y-122994105D01*
X137940001Y-122990001D01*
X138034974Y-122874276D01*
X138105546Y-122742247D01*
X138149003Y-122598986D01*
X138160000Y-122487333D01*
X138160000Y-122487325D01*
X138163676Y-122450000D01*
X138160000Y-122412675D01*
X138160000Y-104653711D01*
X138203937Y-104609774D01*
X138317205Y-104440256D01*
X138395226Y-104251898D01*
X138435000Y-104051939D01*
X138435000Y-103848061D01*
X138395226Y-103648102D01*
X138317205Y-103459744D01*
X138203937Y-103290226D01*
X138059774Y-103146063D01*
X137890256Y-103032795D01*
X137701898Y-102954774D01*
X137501939Y-102915000D01*
X137298061Y-102915000D01*
X137098102Y-102954774D01*
X136909744Y-103032795D01*
X136740226Y-103146063D01*
X136596063Y-103290226D01*
X136482795Y-103459744D01*
X136404774Y-103648102D01*
X136365000Y-103848061D01*
X136365000Y-104051939D01*
X136404774Y-104251898D01*
X136482795Y-104440256D01*
X136596063Y-104609774D01*
X136640000Y-104653711D01*
X136640000Y-110476289D01*
X136559774Y-110396063D01*
X136390256Y-110282795D01*
X136201898Y-110204774D01*
X136001939Y-110165000D01*
X135939802Y-110165000D01*
X130990299Y-105215498D01*
X130967205Y-105159744D01*
X130853937Y-104990226D01*
X130709774Y-104846063D01*
X130540256Y-104732795D01*
X130351898Y-104654774D01*
X130151939Y-104615000D01*
X129948061Y-104615000D01*
X129775471Y-104649330D01*
X134239803Y-100184999D01*
X142665000Y-100184999D01*
X142665000Y-100251939D01*
X142704774Y-100451898D01*
X142782795Y-100640256D01*
X142896063Y-100809774D01*
X142951013Y-100864724D01*
X142994454Y-101007932D01*
X143002743Y-101023439D01*
X143065026Y-101139961D01*
X143136201Y-101226687D01*
X143160000Y-101255686D01*
X143188998Y-101279484D01*
X143540000Y-101630487D01*
X143540001Y-108112668D01*
X143536324Y-108150000D01*
X143540001Y-108187333D01*
X143550998Y-108298986D01*
X143564180Y-108342442D01*
X143594454Y-108442246D01*
X143665026Y-108574276D01*
X143723254Y-108645226D01*
X143760000Y-108690001D01*
X143788998Y-108713799D01*
X146865000Y-111789802D01*
X146865000Y-111851939D01*
X146904774Y-112051898D01*
X146982795Y-112240256D01*
X147096063Y-112409774D01*
X147240226Y-112553937D01*
X147409744Y-112667205D01*
X147598102Y-112745226D01*
X147798061Y-112785000D01*
X148001939Y-112785000D01*
X148201898Y-112745226D01*
X148390256Y-112667205D01*
X148559774Y-112553937D01*
X148703937Y-112409774D01*
X148817205Y-112240256D01*
X148895226Y-112051898D01*
X148935000Y-111851939D01*
X148935000Y-111648061D01*
X148895226Y-111448102D01*
X148817205Y-111259744D01*
X148703937Y-111090226D01*
X148559774Y-110946063D01*
X148390256Y-110832795D01*
X148201898Y-110754774D01*
X148001939Y-110715000D01*
X147939802Y-110715000D01*
X145060000Y-107835199D01*
X145060000Y-101511799D01*
X147740001Y-104191801D01*
X147740000Y-106946289D01*
X147696063Y-106990226D01*
X147582795Y-107159744D01*
X147504774Y-107348102D01*
X147465000Y-107548061D01*
X147465000Y-107751939D01*
X147504774Y-107951898D01*
X147582795Y-108140256D01*
X147696063Y-108309774D01*
X147840226Y-108453937D01*
X148009744Y-108567205D01*
X148198102Y-108645226D01*
X148398061Y-108685000D01*
X148601939Y-108685000D01*
X148801898Y-108645226D01*
X148990256Y-108567205D01*
X149159774Y-108453937D01*
X149303937Y-108309774D01*
X149417205Y-108140256D01*
X149495226Y-107951898D01*
X149535000Y-107751939D01*
X149535000Y-107548061D01*
X149495226Y-107348102D01*
X149417205Y-107159744D01*
X149303937Y-106990226D01*
X149260000Y-106946289D01*
X149260000Y-103914320D01*
X149263676Y-103876997D01*
X149260000Y-103839674D01*
X149260000Y-103839665D01*
X149249003Y-103728012D01*
X149205546Y-103584751D01*
X149134974Y-103452722D01*
X149040001Y-103336997D01*
X149011003Y-103313199D01*
X144611805Y-98914002D01*
X144588002Y-98884998D01*
X144472277Y-98790025D01*
X144340248Y-98719453D01*
X144196987Y-98675996D01*
X144085334Y-98664999D01*
X144085323Y-98664999D01*
X144048001Y-98661323D01*
X144010679Y-98664999D01*
X134659804Y-98664999D01*
X135889802Y-97435001D01*
X137810679Y-97435001D01*
X137848001Y-97438677D01*
X137885323Y-97435001D01*
X137885334Y-97435001D01*
X137996987Y-97424004D01*
X138140248Y-97380547D01*
X138272277Y-97309975D01*
X138388002Y-97215002D01*
X138411805Y-97185998D01*
X138612802Y-96985001D01*
X143228841Y-96985001D01*
X143282795Y-97115256D01*
X143396063Y-97284774D01*
X143540226Y-97428937D01*
X143709744Y-97542205D01*
X143898102Y-97620226D01*
X144098061Y-97660000D01*
X144301939Y-97660000D01*
X144501898Y-97620226D01*
X144690256Y-97542205D01*
X144859774Y-97428937D01*
X145003937Y-97284774D01*
X145117205Y-97115256D01*
X145195226Y-96926898D01*
X145235000Y-96726939D01*
X145235000Y-96523061D01*
X145232402Y-96510000D01*
X155285199Y-96510000D01*
X157565000Y-98789802D01*
X157565000Y-98851939D01*
X157604774Y-99051898D01*
X157682795Y-99240256D01*
X157796063Y-99409774D01*
X157940226Y-99553937D01*
X158109744Y-99667205D01*
X158298102Y-99745226D01*
X158498061Y-99785000D01*
X158701939Y-99785000D01*
X158901898Y-99745226D01*
X159090256Y-99667205D01*
X159259774Y-99553937D01*
X159403937Y-99409774D01*
X159517205Y-99240256D01*
X159595226Y-99051898D01*
X159635000Y-98851939D01*
X159635000Y-98648061D01*
X159595226Y-98448102D01*
X159517205Y-98259744D01*
X159403937Y-98090226D01*
X159259774Y-97946063D01*
X159090256Y-97832795D01*
X158901898Y-97754774D01*
X158701939Y-97715000D01*
X158639802Y-97715000D01*
X156399627Y-95474826D01*
X156504901Y-95442892D01*
X156636930Y-95372320D01*
X156752655Y-95277347D01*
X156776458Y-95248343D01*
X158939802Y-93085000D01*
X159001939Y-93085000D01*
X159201898Y-93045226D01*
X159390256Y-92967205D01*
X159559774Y-92853937D01*
X159703937Y-92709774D01*
X159817205Y-92540256D01*
X159895226Y-92351898D01*
X159935000Y-92151939D01*
X159935000Y-91948061D01*
X159895226Y-91748102D01*
X159817205Y-91559744D01*
X159703937Y-91390226D01*
X159559774Y-91246063D01*
X159390256Y-91132795D01*
X159201898Y-91054774D01*
X159001939Y-91015000D01*
X158798061Y-91015000D01*
X158598102Y-91054774D01*
X158409744Y-91132795D01*
X158240226Y-91246063D01*
X158096063Y-91390226D01*
X157982795Y-91559744D01*
X157904774Y-91748102D01*
X157865000Y-91948061D01*
X157865000Y-92010198D01*
X155897853Y-93977346D01*
X151412975Y-93977346D01*
X151483170Y-93948270D01*
X151652688Y-93835002D01*
X151796851Y-93690839D01*
X151910119Y-93521321D01*
X151988140Y-93332963D01*
X152027914Y-93133004D01*
X152027914Y-92929126D01*
X151988140Y-92729167D01*
X151910119Y-92540809D01*
X151796851Y-92371291D01*
X151652688Y-92227128D01*
X151560000Y-92165196D01*
X151560000Y-86264801D01*
X154243046Y-83581756D01*
X154236324Y-83650000D01*
X154240001Y-83687332D01*
X154240000Y-85078362D01*
X154236324Y-85115685D01*
X154240000Y-85153007D01*
X154240000Y-85153017D01*
X154250997Y-85264670D01*
X154275373Y-85345028D01*
X154294454Y-85407931D01*
X154365026Y-85539961D01*
X154404871Y-85588511D01*
X154459999Y-85655686D01*
X154489003Y-85679489D01*
X156670516Y-87861003D01*
X156694314Y-87890001D01*
X156723312Y-87913799D01*
X156810039Y-87984974D01*
X156942068Y-88055546D01*
X157085276Y-88098987D01*
X157140226Y-88153937D01*
X157309744Y-88267205D01*
X157498102Y-88345226D01*
X157698061Y-88385000D01*
X157901939Y-88385000D01*
X158101898Y-88345226D01*
X158290256Y-88267205D01*
X158459774Y-88153937D01*
X158603937Y-88009774D01*
X158717205Y-87840256D01*
X158795226Y-87651898D01*
X158835000Y-87451939D01*
X158835000Y-87248061D01*
X158795226Y-87048102D01*
X158717205Y-86859744D01*
X158603937Y-86690226D01*
X158459774Y-86546063D01*
X158290256Y-86432795D01*
X158101898Y-86354774D01*
X157901939Y-86315000D01*
X157698061Y-86315000D01*
X157498102Y-86354774D01*
X157367845Y-86408728D01*
X155760000Y-84800884D01*
X155760000Y-84221159D01*
X155890256Y-84167205D01*
X156059774Y-84053937D01*
X156203937Y-83909774D01*
X156317205Y-83740256D01*
X156395226Y-83551898D01*
X156435000Y-83351939D01*
X156435000Y-83148061D01*
X156395226Y-82948102D01*
X156317205Y-82759744D01*
X156203937Y-82590226D01*
X156059774Y-82446063D01*
X155890256Y-82332795D01*
X155701898Y-82254774D01*
X155591906Y-82232895D01*
X156111003Y-81713799D01*
X156140001Y-81690001D01*
X156166332Y-81657917D01*
X156234974Y-81574277D01*
X156305546Y-81442247D01*
X156322911Y-81385000D01*
X156349003Y-81298986D01*
X156360000Y-81187333D01*
X156360000Y-81187324D01*
X156363676Y-81150001D01*
X156360000Y-81112678D01*
X156360000Y-81053711D01*
X156403937Y-81009774D01*
X156517205Y-80840256D01*
X156595226Y-80651898D01*
X156635000Y-80451939D01*
X156635000Y-80248061D01*
X156595226Y-80048102D01*
X156517205Y-79859744D01*
X156403937Y-79690226D01*
X156332755Y-79619044D01*
X157841800Y-78110000D01*
X158796289Y-78110000D01*
X158840226Y-78153937D01*
X159009744Y-78267205D01*
X159198102Y-78345226D01*
X159398061Y-78385000D01*
X159601939Y-78385000D01*
X159801898Y-78345226D01*
X159990256Y-78267205D01*
X160159774Y-78153937D01*
X160303937Y-78009774D01*
X160417205Y-77840256D01*
X160495226Y-77651898D01*
X160535000Y-77451939D01*
X160535000Y-77248061D01*
X160495226Y-77048102D01*
X160417205Y-76859744D01*
X160303937Y-76690226D01*
X160159774Y-76546063D01*
X159990256Y-76432795D01*
X159801898Y-76354774D01*
X159601939Y-76315000D01*
X159398061Y-76315000D01*
X159198102Y-76354774D01*
X159009744Y-76432795D01*
X158840226Y-76546063D01*
X158796289Y-76590000D01*
X157564321Y-76590000D01*
X157526998Y-76586324D01*
X157489675Y-76590000D01*
X157489665Y-76590000D01*
X157378012Y-76600997D01*
X157234751Y-76644454D01*
X157102722Y-76715026D01*
X156986997Y-76809999D01*
X156963199Y-76838997D01*
X150160000Y-83642197D01*
X150160000Y-79887323D01*
X150163676Y-79850000D01*
X150160000Y-79812677D01*
X150160000Y-79812668D01*
X150149003Y-79701015D01*
X150105546Y-79557754D01*
X150034974Y-79425725D01*
X150012381Y-79398195D01*
X149963799Y-79338997D01*
X149963795Y-79338993D01*
X149940001Y-79310000D01*
X149911009Y-79286207D01*
X144435000Y-73810200D01*
X144435000Y-73748062D01*
X144395226Y-73548103D01*
X144317205Y-73359745D01*
X144203937Y-73190227D01*
X144059774Y-73046064D01*
X143890256Y-72932796D01*
X143701898Y-72854775D01*
X143501939Y-72815001D01*
X143298061Y-72815001D01*
X143098102Y-72854775D01*
X142909744Y-72932796D01*
X142740226Y-73046064D01*
X142596063Y-73190227D01*
X142482795Y-73359745D01*
X142404774Y-73548103D01*
X142365000Y-73748062D01*
X142365000Y-73951940D01*
X142404774Y-74151899D01*
X142482795Y-74340257D01*
X142596063Y-74509775D01*
X142740226Y-74653938D01*
X142909744Y-74767206D01*
X143098102Y-74845227D01*
X143298061Y-74885001D01*
X143360199Y-74885001D01*
X148640000Y-80164804D01*
X148640001Y-92146288D01*
X148596063Y-92190226D01*
X148482795Y-92359744D01*
X148404774Y-92548102D01*
X148365000Y-92748061D01*
X148365000Y-92951939D01*
X148404774Y-93151898D01*
X148482795Y-93340256D01*
X148596063Y-93509774D01*
X148740226Y-93653937D01*
X148909744Y-93767205D01*
X149067982Y-93832750D01*
X149096744Y-93977346D01*
X138316362Y-93977346D01*
X138272425Y-93933409D01*
X138102907Y-93820141D01*
X137914549Y-93742120D01*
X137714590Y-93702346D01*
X137510712Y-93702346D01*
X137310753Y-93742120D01*
X137122395Y-93820141D01*
X136952877Y-93933409D01*
X136808714Y-94077572D01*
X136695446Y-94247090D01*
X136617425Y-94435448D01*
X136577651Y-94635407D01*
X136577651Y-94839285D01*
X136617425Y-95039244D01*
X136695446Y-95227602D01*
X136699859Y-95234206D01*
X136682795Y-95259744D01*
X136604774Y-95448102D01*
X136565000Y-95648061D01*
X136565000Y-95851939D01*
X136577544Y-95915001D01*
X135612321Y-95915001D01*
X135574998Y-95911325D01*
X135537675Y-95915001D01*
X135537666Y-95915001D01*
X135426013Y-95925998D01*
X135282752Y-95969455D01*
X135150723Y-96040027D01*
X135150721Y-96040028D01*
X135150722Y-96040028D01*
X135063995Y-96111202D01*
X135063991Y-96111206D01*
X135034998Y-96135000D01*
X135011204Y-96163993D01*
X127363997Y-103811202D01*
X127334999Y-103835000D01*
X127311201Y-103863998D01*
X127311200Y-103863999D01*
X127240025Y-103950725D01*
X127169453Y-104082755D01*
X127167187Y-104090226D01*
X127125996Y-104226015D01*
X127114999Y-104337668D01*
X127114999Y-104337679D01*
X127111323Y-104375001D01*
X118960000Y-104375001D01*
X118960000Y-100048061D01*
X127265000Y-100048061D01*
X127265000Y-100251939D01*
X127304774Y-100451898D01*
X127382795Y-100640256D01*
X127496063Y-100809774D01*
X127640226Y-100953937D01*
X127809744Y-101067205D01*
X127998102Y-101145226D01*
X128198061Y-101185000D01*
X128401939Y-101185000D01*
X128601898Y-101145226D01*
X128790256Y-101067205D01*
X128959774Y-100953937D01*
X129103937Y-100809774D01*
X129217205Y-100640256D01*
X129295226Y-100451898D01*
X129335000Y-100251939D01*
X129335000Y-100048061D01*
X129295226Y-99848102D01*
X129217205Y-99659744D01*
X129103937Y-99490226D01*
X129060000Y-99446289D01*
X129060000Y-98230486D01*
X135911003Y-91379484D01*
X135940001Y-91355686D01*
X136034974Y-91239961D01*
X136105546Y-91107932D01*
X136148987Y-90964724D01*
X136203937Y-90909774D01*
X136317205Y-90740256D01*
X136355393Y-90648061D01*
X138540000Y-90648061D01*
X138540000Y-90851939D01*
X138579774Y-91051898D01*
X138657795Y-91240256D01*
X138771063Y-91409774D01*
X138915226Y-91553937D01*
X139084744Y-91667205D01*
X139273102Y-91745226D01*
X139473061Y-91785000D01*
X139676939Y-91785000D01*
X139876898Y-91745226D01*
X140065256Y-91667205D01*
X140234774Y-91553937D01*
X140378937Y-91409774D01*
X140492205Y-91240256D01*
X140570226Y-91051898D01*
X140610000Y-90851939D01*
X140610000Y-90789801D01*
X141589802Y-89810000D01*
X143921289Y-89810000D01*
X143965226Y-89853937D01*
X144134744Y-89967205D01*
X144323102Y-90045226D01*
X144523061Y-90085000D01*
X144726939Y-90085000D01*
X144926898Y-90045226D01*
X145115256Y-89967205D01*
X145284774Y-89853937D01*
X145428937Y-89709774D01*
X145542205Y-89540256D01*
X145620226Y-89351898D01*
X145660000Y-89151939D01*
X145660000Y-88948061D01*
X145620226Y-88748102D01*
X145542205Y-88559744D01*
X145428937Y-88390226D01*
X145284774Y-88246063D01*
X145115256Y-88132795D01*
X144926898Y-88054774D01*
X144726939Y-88015000D01*
X144523061Y-88015000D01*
X144323102Y-88054774D01*
X144134744Y-88132795D01*
X143965226Y-88246063D01*
X143921289Y-88290000D01*
X141312322Y-88290000D01*
X141274999Y-88286324D01*
X141237676Y-88290000D01*
X141237667Y-88290000D01*
X141126014Y-88300997D01*
X140982753Y-88344454D01*
X140850723Y-88415026D01*
X140768147Y-88482795D01*
X140734999Y-88509999D01*
X140711201Y-88538997D01*
X139535199Y-89715000D01*
X139473061Y-89715000D01*
X139273102Y-89754774D01*
X139084744Y-89832795D01*
X138915226Y-89946063D01*
X138771063Y-90090226D01*
X138657795Y-90259744D01*
X138579774Y-90448102D01*
X138540000Y-90648061D01*
X136355393Y-90648061D01*
X136395226Y-90551898D01*
X136435000Y-90351939D01*
X136435000Y-90148061D01*
X136395226Y-89948102D01*
X136317205Y-89759744D01*
X136203937Y-89590226D01*
X136059774Y-89446063D01*
X135890256Y-89332795D01*
X135701898Y-89254774D01*
X135501939Y-89215000D01*
X135459801Y-89215000D01*
X136711004Y-87963798D01*
X136740001Y-87940001D01*
X136821860Y-87840256D01*
X136834974Y-87824277D01*
X136905546Y-87692247D01*
X136913710Y-87665333D01*
X136949003Y-87548986D01*
X136960000Y-87437333D01*
X136960000Y-87437324D01*
X136963676Y-87400001D01*
X136960000Y-87362678D01*
X136960000Y-70148061D01*
X141165000Y-70148061D01*
X141165000Y-70351939D01*
X141204774Y-70551898D01*
X141282795Y-70740256D01*
X141396063Y-70909774D01*
X141540226Y-71053937D01*
X141709744Y-71167205D01*
X141898102Y-71245226D01*
X142098061Y-71285000D01*
X142301939Y-71285000D01*
X142501898Y-71245226D01*
X142690256Y-71167205D01*
X142859774Y-71053937D01*
X143003937Y-70909774D01*
X143117205Y-70740256D01*
X143195226Y-70551898D01*
X143235000Y-70351939D01*
X143235000Y-70289801D01*
X143711004Y-69813798D01*
X143740001Y-69790001D01*
X143834974Y-69674276D01*
X143905546Y-69542247D01*
X143949003Y-69398986D01*
X143960000Y-69287333D01*
X143960000Y-69287332D01*
X143963677Y-69250000D01*
X143960000Y-69212667D01*
X143960000Y-65253711D01*
X144003937Y-65209774D01*
X144117205Y-65040256D01*
X144195226Y-64851898D01*
X144235000Y-64651939D01*
X144235000Y-64448061D01*
X144195226Y-64248102D01*
X144117205Y-64059744D01*
X144003937Y-63890226D01*
X143859774Y-63746063D01*
X143690256Y-63632795D01*
X143501898Y-63554774D01*
X143301939Y-63515000D01*
X143098061Y-63515000D01*
X142898102Y-63554774D01*
X142709744Y-63632795D01*
X142540226Y-63746063D01*
X142396063Y-63890226D01*
X142282795Y-64059744D01*
X142204774Y-64248102D01*
X142165000Y-64448061D01*
X142165000Y-64651939D01*
X142204774Y-64851898D01*
X142282795Y-65040256D01*
X142396063Y-65209774D01*
X142440001Y-65253712D01*
X142440000Y-68935198D01*
X142160199Y-69215000D01*
X142098061Y-69215000D01*
X141898102Y-69254774D01*
X141709744Y-69332795D01*
X141540226Y-69446063D01*
X141396063Y-69590226D01*
X141282795Y-69759744D01*
X141204774Y-69948102D01*
X141165000Y-70148061D01*
X136960000Y-70148061D01*
X136960000Y-67564330D01*
X136963676Y-67527007D01*
X136960000Y-67489685D01*
X136960000Y-67489675D01*
X136949003Y-67378022D01*
X136905546Y-67234761D01*
X136901261Y-67226745D01*
X136834974Y-67102731D01*
X136763799Y-67016005D01*
X136740001Y-66987007D01*
X136711003Y-66963209D01*
X132686796Y-62939003D01*
X132662993Y-62909999D01*
X132547268Y-62815026D01*
X132415239Y-62744454D01*
X132271978Y-62700997D01*
X132160325Y-62690000D01*
X132160314Y-62690000D01*
X132122992Y-62686324D01*
X132085670Y-62690000D01*
X130703711Y-62690000D01*
X130659774Y-62646063D01*
X130490256Y-62532795D01*
X130301898Y-62454774D01*
X130101939Y-62415000D01*
X129898061Y-62415000D01*
X129698102Y-62454774D01*
X129509744Y-62532795D01*
X129340226Y-62646063D01*
X129196063Y-62790226D01*
X129082795Y-62959744D01*
X129004774Y-63148102D01*
X128965000Y-63348061D01*
X128965000Y-63551939D01*
X129004774Y-63751898D01*
X129082795Y-63940256D01*
X129196063Y-64109774D01*
X129340226Y-64253937D01*
X129509744Y-64367205D01*
X129698102Y-64445226D01*
X129898061Y-64485000D01*
X130101939Y-64485000D01*
X130301898Y-64445226D01*
X130490256Y-64367205D01*
X130659774Y-64253937D01*
X130703711Y-64210000D01*
X131632840Y-64210000D01*
X131532785Y-64359744D01*
X131454764Y-64548102D01*
X131414990Y-64748061D01*
X131414990Y-64951939D01*
X131454764Y-65151898D01*
X131532785Y-65340256D01*
X131646053Y-65509774D01*
X131701003Y-65564724D01*
X131744444Y-65707932D01*
X131769027Y-65753921D01*
X131815016Y-65839961D01*
X131886191Y-65926687D01*
X131909990Y-65955686D01*
X131938988Y-65979484D01*
X132140000Y-66180496D01*
X132140001Y-87985503D01*
X130235352Y-89890153D01*
X130173214Y-89890153D01*
X129973255Y-89929927D01*
X129784897Y-90007948D01*
X129615379Y-90121216D01*
X129471216Y-90265379D01*
X129357948Y-90434897D01*
X129279927Y-90623255D01*
X129240153Y-90823214D01*
X129240153Y-91027092D01*
X129279927Y-91227051D01*
X129357948Y-91415409D01*
X129471216Y-91584927D01*
X129615379Y-91729090D01*
X129784897Y-91842358D01*
X129973255Y-91920379D01*
X130173214Y-91960153D01*
X130377092Y-91960153D01*
X130577051Y-91920379D01*
X130765409Y-91842358D01*
X130934927Y-91729090D01*
X131079090Y-91584927D01*
X131192358Y-91415409D01*
X131270379Y-91227051D01*
X131310153Y-91027092D01*
X131310153Y-90964954D01*
X133224409Y-89050699D01*
X133204774Y-89098102D01*
X133165000Y-89298061D01*
X133165000Y-89501939D01*
X133204774Y-89701898D01*
X133282795Y-89890256D01*
X133396063Y-90059774D01*
X133540226Y-90203937D01*
X133709744Y-90317205D01*
X133898102Y-90395226D01*
X134098061Y-90435000D01*
X134301939Y-90435000D01*
X134378493Y-90419773D01*
X134404774Y-90551898D01*
X134458728Y-90682155D01*
X127789003Y-97351881D01*
X127759999Y-97375684D01*
X127704871Y-97442859D01*
X127665026Y-97491409D01*
X127637875Y-97542205D01*
X127594454Y-97623439D01*
X127550997Y-97766700D01*
X127540000Y-97878353D01*
X127540000Y-97878363D01*
X127536324Y-97915685D01*
X127540000Y-97953008D01*
X127540001Y-99446288D01*
X127496063Y-99490226D01*
X127382795Y-99659744D01*
X127304774Y-99848102D01*
X127265000Y-100048061D01*
X118960000Y-100048061D01*
X118960000Y-80652096D01*
X119078682Y-80749495D01*
X119306259Y-80871138D01*
X119553195Y-80946045D01*
X119745649Y-80965000D01*
X120224351Y-80965000D01*
X120416805Y-80946045D01*
X120663741Y-80871138D01*
X120891318Y-80749495D01*
X121090792Y-80585792D01*
X121254495Y-80386318D01*
X121376138Y-80158741D01*
X121451045Y-79911805D01*
X121476338Y-79655000D01*
X121451045Y-79398195D01*
X121434909Y-79345000D01*
X121594267Y-79345000D01*
X121617147Y-79577300D01*
X121684906Y-79800674D01*
X121794942Y-80006536D01*
X121943025Y-80186975D01*
X122123464Y-80335058D01*
X122329326Y-80445094D01*
X122552700Y-80512853D01*
X122726793Y-80530000D01*
X123243207Y-80530000D01*
X123417300Y-80512853D01*
X123640674Y-80445094D01*
X123846536Y-80335058D01*
X124026975Y-80186975D01*
X124175058Y-80006536D01*
X124285094Y-79800674D01*
X124352853Y-79577300D01*
X124375733Y-79345000D01*
X124352853Y-79112700D01*
X124285094Y-78889326D01*
X124175058Y-78683464D01*
X124026975Y-78503025D01*
X123846536Y-78354942D01*
X123640674Y-78244906D01*
X123417300Y-78177147D01*
X123243207Y-78160000D01*
X122726793Y-78160000D01*
X122552700Y-78177147D01*
X122329326Y-78244906D01*
X122123464Y-78354942D01*
X121943025Y-78503025D01*
X121794942Y-78683464D01*
X121684906Y-78889326D01*
X121617147Y-79112700D01*
X121594267Y-79345000D01*
X121434909Y-79345000D01*
X121376138Y-79151259D01*
X121254495Y-78923682D01*
X121090792Y-78724208D01*
X120891318Y-78560505D01*
X120663741Y-78438862D01*
X120416805Y-78363955D01*
X120224351Y-78345000D01*
X119745649Y-78345000D01*
X119553195Y-78363955D01*
X119306259Y-78438862D01*
X119078682Y-78560505D01*
X118960000Y-78657904D01*
X118960000Y-75192096D01*
X119078682Y-75289495D01*
X119306259Y-75411138D01*
X119553195Y-75486045D01*
X119745649Y-75505000D01*
X120224351Y-75505000D01*
X120416805Y-75486045D01*
X120663741Y-75411138D01*
X120891318Y-75289495D01*
X121090792Y-75125792D01*
X121254495Y-74926318D01*
X121376138Y-74698741D01*
X121434908Y-74505000D01*
X121594267Y-74505000D01*
X121617147Y-74737300D01*
X121684906Y-74960674D01*
X121794942Y-75166536D01*
X121943025Y-75346975D01*
X122123464Y-75495058D01*
X122329326Y-75605094D01*
X122552700Y-75672853D01*
X122726793Y-75690000D01*
X123243207Y-75690000D01*
X123417300Y-75672853D01*
X123640674Y-75605094D01*
X123846536Y-75495058D01*
X124026975Y-75346975D01*
X124175058Y-75166536D01*
X124285094Y-74960674D01*
X124352853Y-74737300D01*
X124375733Y-74505000D01*
X124352853Y-74272700D01*
X124285094Y-74049326D01*
X124175058Y-73843464D01*
X124026975Y-73663025D01*
X123846536Y-73514942D01*
X123640674Y-73404906D01*
X123417300Y-73337147D01*
X123243207Y-73320000D01*
X122726793Y-73320000D01*
X122552700Y-73337147D01*
X122329326Y-73404906D01*
X122123464Y-73514942D01*
X121943025Y-73663025D01*
X121794942Y-73843464D01*
X121684906Y-74049326D01*
X121617147Y-74272700D01*
X121594267Y-74505000D01*
X121434908Y-74505000D01*
X121451045Y-74451805D01*
X121476338Y-74195000D01*
X121451045Y-73938195D01*
X121376138Y-73691259D01*
X121254495Y-73463682D01*
X121090792Y-73264208D01*
X120891318Y-73100505D01*
X120663741Y-72978862D01*
X120416805Y-72903955D01*
X120224351Y-72885000D01*
X119745649Y-72885000D01*
X119553195Y-72903955D01*
X119306259Y-72978862D01*
X119078682Y-73100505D01*
X118960000Y-73197904D01*
X118960000Y-56310000D01*
X174140000Y-56310000D01*
X174140001Y-128990000D01*
G37*
X174140001Y-128990000D02*
X118960000Y-128990000D01*
X118960000Y-104375001D01*
X127111323Y-104375001D01*
X127114999Y-104412323D01*
X127114999Y-105087677D01*
X127111323Y-105124999D01*
X127114999Y-105162321D01*
X127114999Y-105162331D01*
X127125996Y-105273984D01*
X127151407Y-105357753D01*
X127169453Y-105417245D01*
X127240025Y-105549275D01*
X127279870Y-105597825D01*
X127334998Y-105665000D01*
X127364002Y-105688803D01*
X131465000Y-109789802D01*
X131465000Y-109851939D01*
X131504774Y-110051898D01*
X131582795Y-110240256D01*
X131696063Y-110409774D01*
X131840226Y-110553937D01*
X132009744Y-110667205D01*
X132198102Y-110745226D01*
X132398061Y-110785000D01*
X132601939Y-110785000D01*
X132801898Y-110745226D01*
X132990256Y-110667205D01*
X133159774Y-110553937D01*
X133303937Y-110409774D01*
X133417205Y-110240256D01*
X133495226Y-110051898D01*
X133525400Y-109900202D01*
X134865000Y-111239802D01*
X134865000Y-111301939D01*
X134904774Y-111501898D01*
X134982795Y-111690256D01*
X135096063Y-111859774D01*
X135240226Y-112003937D01*
X135409744Y-112117205D01*
X135598102Y-112195226D01*
X135798061Y-112235000D01*
X136001939Y-112235000D01*
X136201898Y-112195226D01*
X136390256Y-112117205D01*
X136559774Y-112003937D01*
X136640000Y-111923711D01*
X136640001Y-121946440D01*
X136598102Y-121954774D01*
X136409744Y-122032795D01*
X136240226Y-122146063D01*
X136096063Y-122290226D01*
X135982795Y-122459744D01*
X135904774Y-122648102D01*
X135865000Y-122848061D01*
X135865000Y-123051939D01*
X135904774Y-123251898D01*
X135982795Y-123440256D01*
X136096063Y-123609774D01*
X136240226Y-123753937D01*
X136409744Y-123867205D01*
X136598102Y-123945226D01*
X136798061Y-123985000D01*
X137001939Y-123985000D01*
X137201898Y-123945226D01*
X137390256Y-123867205D01*
X137559774Y-123753937D01*
X137703937Y-123609774D01*
X137817205Y-123440256D01*
X137895226Y-123251898D01*
X137935000Y-123051939D01*
X137935000Y-122994105D01*
X137940001Y-122990001D01*
X138034974Y-122874276D01*
X138105546Y-122742247D01*
X138149003Y-122598986D01*
X138160000Y-122487333D01*
X138160000Y-122487325D01*
X138163676Y-122450000D01*
X138160000Y-122412675D01*
X138160000Y-104653711D01*
X138203937Y-104609774D01*
X138317205Y-104440256D01*
X138395226Y-104251898D01*
X138435000Y-104051939D01*
X138435000Y-103848061D01*
X138395226Y-103648102D01*
X138317205Y-103459744D01*
X138203937Y-103290226D01*
X138059774Y-103146063D01*
X137890256Y-103032795D01*
X137701898Y-102954774D01*
X137501939Y-102915000D01*
X137298061Y-102915000D01*
X137098102Y-102954774D01*
X136909744Y-103032795D01*
X136740226Y-103146063D01*
X136596063Y-103290226D01*
X136482795Y-103459744D01*
X136404774Y-103648102D01*
X136365000Y-103848061D01*
X136365000Y-104051939D01*
X136404774Y-104251898D01*
X136482795Y-104440256D01*
X136596063Y-104609774D01*
X136640000Y-104653711D01*
X136640000Y-110476289D01*
X136559774Y-110396063D01*
X136390256Y-110282795D01*
X136201898Y-110204774D01*
X136001939Y-110165000D01*
X135939802Y-110165000D01*
X130990299Y-105215498D01*
X130967205Y-105159744D01*
X130853937Y-104990226D01*
X130709774Y-104846063D01*
X130540256Y-104732795D01*
X130351898Y-104654774D01*
X130151939Y-104615000D01*
X129948061Y-104615000D01*
X129775471Y-104649330D01*
X134239803Y-100184999D01*
X142665000Y-100184999D01*
X142665000Y-100251939D01*
X142704774Y-100451898D01*
X142782795Y-100640256D01*
X142896063Y-100809774D01*
X142951013Y-100864724D01*
X142994454Y-101007932D01*
X143002743Y-101023439D01*
X143065026Y-101139961D01*
X143136201Y-101226687D01*
X143160000Y-101255686D01*
X143188998Y-101279484D01*
X143540000Y-101630487D01*
X143540001Y-108112668D01*
X143536324Y-108150000D01*
X143540001Y-108187333D01*
X143550998Y-108298986D01*
X143564180Y-108342442D01*
X143594454Y-108442246D01*
X143665026Y-108574276D01*
X143723254Y-108645226D01*
X143760000Y-108690001D01*
X143788998Y-108713799D01*
X146865000Y-111789802D01*
X146865000Y-111851939D01*
X146904774Y-112051898D01*
X146982795Y-112240256D01*
X147096063Y-112409774D01*
X147240226Y-112553937D01*
X147409744Y-112667205D01*
X147598102Y-112745226D01*
X147798061Y-112785000D01*
X148001939Y-112785000D01*
X148201898Y-112745226D01*
X148390256Y-112667205D01*
X148559774Y-112553937D01*
X148703937Y-112409774D01*
X148817205Y-112240256D01*
X148895226Y-112051898D01*
X148935000Y-111851939D01*
X148935000Y-111648061D01*
X148895226Y-111448102D01*
X148817205Y-111259744D01*
X148703937Y-111090226D01*
X148559774Y-110946063D01*
X148390256Y-110832795D01*
X148201898Y-110754774D01*
X148001939Y-110715000D01*
X147939802Y-110715000D01*
X145060000Y-107835199D01*
X145060000Y-101511799D01*
X147740001Y-104191801D01*
X147740000Y-106946289D01*
X147696063Y-106990226D01*
X147582795Y-107159744D01*
X147504774Y-107348102D01*
X147465000Y-107548061D01*
X147465000Y-107751939D01*
X147504774Y-107951898D01*
X147582795Y-108140256D01*
X147696063Y-108309774D01*
X147840226Y-108453937D01*
X148009744Y-108567205D01*
X148198102Y-108645226D01*
X148398061Y-108685000D01*
X148601939Y-108685000D01*
X148801898Y-108645226D01*
X148990256Y-108567205D01*
X149159774Y-108453937D01*
X149303937Y-108309774D01*
X149417205Y-108140256D01*
X149495226Y-107951898D01*
X149535000Y-107751939D01*
X149535000Y-107548061D01*
X149495226Y-107348102D01*
X149417205Y-107159744D01*
X149303937Y-106990226D01*
X149260000Y-106946289D01*
X149260000Y-103914320D01*
X149263676Y-103876997D01*
X149260000Y-103839674D01*
X149260000Y-103839665D01*
X149249003Y-103728012D01*
X149205546Y-103584751D01*
X149134974Y-103452722D01*
X149040001Y-103336997D01*
X149011003Y-103313199D01*
X144611805Y-98914002D01*
X144588002Y-98884998D01*
X144472277Y-98790025D01*
X144340248Y-98719453D01*
X144196987Y-98675996D01*
X144085334Y-98664999D01*
X144085323Y-98664999D01*
X144048001Y-98661323D01*
X144010679Y-98664999D01*
X134659804Y-98664999D01*
X135889802Y-97435001D01*
X137810679Y-97435001D01*
X137848001Y-97438677D01*
X137885323Y-97435001D01*
X137885334Y-97435001D01*
X137996987Y-97424004D01*
X138140248Y-97380547D01*
X138272277Y-97309975D01*
X138388002Y-97215002D01*
X138411805Y-97185998D01*
X138612802Y-96985001D01*
X143228841Y-96985001D01*
X143282795Y-97115256D01*
X143396063Y-97284774D01*
X143540226Y-97428937D01*
X143709744Y-97542205D01*
X143898102Y-97620226D01*
X144098061Y-97660000D01*
X144301939Y-97660000D01*
X144501898Y-97620226D01*
X144690256Y-97542205D01*
X144859774Y-97428937D01*
X145003937Y-97284774D01*
X145117205Y-97115256D01*
X145195226Y-96926898D01*
X145235000Y-96726939D01*
X145235000Y-96523061D01*
X145232402Y-96510000D01*
X155285199Y-96510000D01*
X157565000Y-98789802D01*
X157565000Y-98851939D01*
X157604774Y-99051898D01*
X157682795Y-99240256D01*
X157796063Y-99409774D01*
X157940226Y-99553937D01*
X158109744Y-99667205D01*
X158298102Y-99745226D01*
X158498061Y-99785000D01*
X158701939Y-99785000D01*
X158901898Y-99745226D01*
X159090256Y-99667205D01*
X159259774Y-99553937D01*
X159403937Y-99409774D01*
X159517205Y-99240256D01*
X159595226Y-99051898D01*
X159635000Y-98851939D01*
X159635000Y-98648061D01*
X159595226Y-98448102D01*
X159517205Y-98259744D01*
X159403937Y-98090226D01*
X159259774Y-97946063D01*
X159090256Y-97832795D01*
X158901898Y-97754774D01*
X158701939Y-97715000D01*
X158639802Y-97715000D01*
X156399627Y-95474826D01*
X156504901Y-95442892D01*
X156636930Y-95372320D01*
X156752655Y-95277347D01*
X156776458Y-95248343D01*
X158939802Y-93085000D01*
X159001939Y-93085000D01*
X159201898Y-93045226D01*
X159390256Y-92967205D01*
X159559774Y-92853937D01*
X159703937Y-92709774D01*
X159817205Y-92540256D01*
X159895226Y-92351898D01*
X159935000Y-92151939D01*
X159935000Y-91948061D01*
X159895226Y-91748102D01*
X159817205Y-91559744D01*
X159703937Y-91390226D01*
X159559774Y-91246063D01*
X159390256Y-91132795D01*
X159201898Y-91054774D01*
X159001939Y-91015000D01*
X158798061Y-91015000D01*
X158598102Y-91054774D01*
X158409744Y-91132795D01*
X158240226Y-91246063D01*
X158096063Y-91390226D01*
X157982795Y-91559744D01*
X157904774Y-91748102D01*
X157865000Y-91948061D01*
X157865000Y-92010198D01*
X155897853Y-93977346D01*
X151412975Y-93977346D01*
X151483170Y-93948270D01*
X151652688Y-93835002D01*
X151796851Y-93690839D01*
X151910119Y-93521321D01*
X151988140Y-93332963D01*
X152027914Y-93133004D01*
X152027914Y-92929126D01*
X151988140Y-92729167D01*
X151910119Y-92540809D01*
X151796851Y-92371291D01*
X151652688Y-92227128D01*
X151560000Y-92165196D01*
X151560000Y-86264801D01*
X154243046Y-83581756D01*
X154236324Y-83650000D01*
X154240001Y-83687332D01*
X154240000Y-85078362D01*
X154236324Y-85115685D01*
X154240000Y-85153007D01*
X154240000Y-85153017D01*
X154250997Y-85264670D01*
X154275373Y-85345028D01*
X154294454Y-85407931D01*
X154365026Y-85539961D01*
X154404871Y-85588511D01*
X154459999Y-85655686D01*
X154489003Y-85679489D01*
X156670516Y-87861003D01*
X156694314Y-87890001D01*
X156723312Y-87913799D01*
X156810039Y-87984974D01*
X156942068Y-88055546D01*
X157085276Y-88098987D01*
X157140226Y-88153937D01*
X157309744Y-88267205D01*
X157498102Y-88345226D01*
X157698061Y-88385000D01*
X157901939Y-88385000D01*
X158101898Y-88345226D01*
X158290256Y-88267205D01*
X158459774Y-88153937D01*
X158603937Y-88009774D01*
X158717205Y-87840256D01*
X158795226Y-87651898D01*
X158835000Y-87451939D01*
X158835000Y-87248061D01*
X158795226Y-87048102D01*
X158717205Y-86859744D01*
X158603937Y-86690226D01*
X158459774Y-86546063D01*
X158290256Y-86432795D01*
X158101898Y-86354774D01*
X157901939Y-86315000D01*
X157698061Y-86315000D01*
X157498102Y-86354774D01*
X157367845Y-86408728D01*
X155760000Y-84800884D01*
X155760000Y-84221159D01*
X155890256Y-84167205D01*
X156059774Y-84053937D01*
X156203937Y-83909774D01*
X156317205Y-83740256D01*
X156395226Y-83551898D01*
X156435000Y-83351939D01*
X156435000Y-83148061D01*
X156395226Y-82948102D01*
X156317205Y-82759744D01*
X156203937Y-82590226D01*
X156059774Y-82446063D01*
X155890256Y-82332795D01*
X155701898Y-82254774D01*
X155591906Y-82232895D01*
X156111003Y-81713799D01*
X156140001Y-81690001D01*
X156166332Y-81657917D01*
X156234974Y-81574277D01*
X156305546Y-81442247D01*
X156322911Y-81385000D01*
X156349003Y-81298986D01*
X156360000Y-81187333D01*
X156360000Y-81187324D01*
X156363676Y-81150001D01*
X156360000Y-81112678D01*
X156360000Y-81053711D01*
X156403937Y-81009774D01*
X156517205Y-80840256D01*
X156595226Y-80651898D01*
X156635000Y-80451939D01*
X156635000Y-80248061D01*
X156595226Y-80048102D01*
X156517205Y-79859744D01*
X156403937Y-79690226D01*
X156332755Y-79619044D01*
X157841800Y-78110000D01*
X158796289Y-78110000D01*
X158840226Y-78153937D01*
X159009744Y-78267205D01*
X159198102Y-78345226D01*
X159398061Y-78385000D01*
X159601939Y-78385000D01*
X159801898Y-78345226D01*
X159990256Y-78267205D01*
X160159774Y-78153937D01*
X160303937Y-78009774D01*
X160417205Y-77840256D01*
X160495226Y-77651898D01*
X160535000Y-77451939D01*
X160535000Y-77248061D01*
X160495226Y-77048102D01*
X160417205Y-76859744D01*
X160303937Y-76690226D01*
X160159774Y-76546063D01*
X159990256Y-76432795D01*
X159801898Y-76354774D01*
X159601939Y-76315000D01*
X159398061Y-76315000D01*
X159198102Y-76354774D01*
X159009744Y-76432795D01*
X158840226Y-76546063D01*
X158796289Y-76590000D01*
X157564321Y-76590000D01*
X157526998Y-76586324D01*
X157489675Y-76590000D01*
X157489665Y-76590000D01*
X157378012Y-76600997D01*
X157234751Y-76644454D01*
X157102722Y-76715026D01*
X156986997Y-76809999D01*
X156963199Y-76838997D01*
X150160000Y-83642197D01*
X150160000Y-79887323D01*
X150163676Y-79850000D01*
X150160000Y-79812677D01*
X150160000Y-79812668D01*
X150149003Y-79701015D01*
X150105546Y-79557754D01*
X150034974Y-79425725D01*
X150012381Y-79398195D01*
X149963799Y-79338997D01*
X149963795Y-79338993D01*
X149940001Y-79310000D01*
X149911009Y-79286207D01*
X144435000Y-73810200D01*
X144435000Y-73748062D01*
X144395226Y-73548103D01*
X144317205Y-73359745D01*
X144203937Y-73190227D01*
X144059774Y-73046064D01*
X143890256Y-72932796D01*
X143701898Y-72854775D01*
X143501939Y-72815001D01*
X143298061Y-72815001D01*
X143098102Y-72854775D01*
X142909744Y-72932796D01*
X142740226Y-73046064D01*
X142596063Y-73190227D01*
X142482795Y-73359745D01*
X142404774Y-73548103D01*
X142365000Y-73748062D01*
X142365000Y-73951940D01*
X142404774Y-74151899D01*
X142482795Y-74340257D01*
X142596063Y-74509775D01*
X142740226Y-74653938D01*
X142909744Y-74767206D01*
X143098102Y-74845227D01*
X143298061Y-74885001D01*
X143360199Y-74885001D01*
X148640000Y-80164804D01*
X148640001Y-92146288D01*
X148596063Y-92190226D01*
X148482795Y-92359744D01*
X148404774Y-92548102D01*
X148365000Y-92748061D01*
X148365000Y-92951939D01*
X148404774Y-93151898D01*
X148482795Y-93340256D01*
X148596063Y-93509774D01*
X148740226Y-93653937D01*
X148909744Y-93767205D01*
X149067982Y-93832750D01*
X149096744Y-93977346D01*
X138316362Y-93977346D01*
X138272425Y-93933409D01*
X138102907Y-93820141D01*
X137914549Y-93742120D01*
X137714590Y-93702346D01*
X137510712Y-93702346D01*
X137310753Y-93742120D01*
X137122395Y-93820141D01*
X136952877Y-93933409D01*
X136808714Y-94077572D01*
X136695446Y-94247090D01*
X136617425Y-94435448D01*
X136577651Y-94635407D01*
X136577651Y-94839285D01*
X136617425Y-95039244D01*
X136695446Y-95227602D01*
X136699859Y-95234206D01*
X136682795Y-95259744D01*
X136604774Y-95448102D01*
X136565000Y-95648061D01*
X136565000Y-95851939D01*
X136577544Y-95915001D01*
X135612321Y-95915001D01*
X135574998Y-95911325D01*
X135537675Y-95915001D01*
X135537666Y-95915001D01*
X135426013Y-95925998D01*
X135282752Y-95969455D01*
X135150723Y-96040027D01*
X135150721Y-96040028D01*
X135150722Y-96040028D01*
X135063995Y-96111202D01*
X135063991Y-96111206D01*
X135034998Y-96135000D01*
X135011204Y-96163993D01*
X127363997Y-103811202D01*
X127334999Y-103835000D01*
X127311201Y-103863998D01*
X127311200Y-103863999D01*
X127240025Y-103950725D01*
X127169453Y-104082755D01*
X127167187Y-104090226D01*
X127125996Y-104226015D01*
X127114999Y-104337668D01*
X127114999Y-104337679D01*
X127111323Y-104375001D01*
X118960000Y-104375001D01*
X118960000Y-100048061D01*
X127265000Y-100048061D01*
X127265000Y-100251939D01*
X127304774Y-100451898D01*
X127382795Y-100640256D01*
X127496063Y-100809774D01*
X127640226Y-100953937D01*
X127809744Y-101067205D01*
X127998102Y-101145226D01*
X128198061Y-101185000D01*
X128401939Y-101185000D01*
X128601898Y-101145226D01*
X128790256Y-101067205D01*
X128959774Y-100953937D01*
X129103937Y-100809774D01*
X129217205Y-100640256D01*
X129295226Y-100451898D01*
X129335000Y-100251939D01*
X129335000Y-100048061D01*
X129295226Y-99848102D01*
X129217205Y-99659744D01*
X129103937Y-99490226D01*
X129060000Y-99446289D01*
X129060000Y-98230486D01*
X135911003Y-91379484D01*
X135940001Y-91355686D01*
X136034974Y-91239961D01*
X136105546Y-91107932D01*
X136148987Y-90964724D01*
X136203937Y-90909774D01*
X136317205Y-90740256D01*
X136355393Y-90648061D01*
X138540000Y-90648061D01*
X138540000Y-90851939D01*
X138579774Y-91051898D01*
X138657795Y-91240256D01*
X138771063Y-91409774D01*
X138915226Y-91553937D01*
X139084744Y-91667205D01*
X139273102Y-91745226D01*
X139473061Y-91785000D01*
X139676939Y-91785000D01*
X139876898Y-91745226D01*
X140065256Y-91667205D01*
X140234774Y-91553937D01*
X140378937Y-91409774D01*
X140492205Y-91240256D01*
X140570226Y-91051898D01*
X140610000Y-90851939D01*
X140610000Y-90789801D01*
X141589802Y-89810000D01*
X143921289Y-89810000D01*
X143965226Y-89853937D01*
X144134744Y-89967205D01*
X144323102Y-90045226D01*
X144523061Y-90085000D01*
X144726939Y-90085000D01*
X144926898Y-90045226D01*
X145115256Y-89967205D01*
X145284774Y-89853937D01*
X145428937Y-89709774D01*
X145542205Y-89540256D01*
X145620226Y-89351898D01*
X145660000Y-89151939D01*
X145660000Y-88948061D01*
X145620226Y-88748102D01*
X145542205Y-88559744D01*
X145428937Y-88390226D01*
X145284774Y-88246063D01*
X145115256Y-88132795D01*
X144926898Y-88054774D01*
X144726939Y-88015000D01*
X144523061Y-88015000D01*
X144323102Y-88054774D01*
X144134744Y-88132795D01*
X143965226Y-88246063D01*
X143921289Y-88290000D01*
X141312322Y-88290000D01*
X141274999Y-88286324D01*
X141237676Y-88290000D01*
X141237667Y-88290000D01*
X141126014Y-88300997D01*
X140982753Y-88344454D01*
X140850723Y-88415026D01*
X140768147Y-88482795D01*
X140734999Y-88509999D01*
X140711201Y-88538997D01*
X139535199Y-89715000D01*
X139473061Y-89715000D01*
X139273102Y-89754774D01*
X139084744Y-89832795D01*
X138915226Y-89946063D01*
X138771063Y-90090226D01*
X138657795Y-90259744D01*
X138579774Y-90448102D01*
X138540000Y-90648061D01*
X136355393Y-90648061D01*
X136395226Y-90551898D01*
X136435000Y-90351939D01*
X136435000Y-90148061D01*
X136395226Y-89948102D01*
X136317205Y-89759744D01*
X136203937Y-89590226D01*
X136059774Y-89446063D01*
X135890256Y-89332795D01*
X135701898Y-89254774D01*
X135501939Y-89215000D01*
X135459801Y-89215000D01*
X136711004Y-87963798D01*
X136740001Y-87940001D01*
X136821860Y-87840256D01*
X136834974Y-87824277D01*
X136905546Y-87692247D01*
X136913710Y-87665333D01*
X136949003Y-87548986D01*
X136960000Y-87437333D01*
X136960000Y-87437324D01*
X136963676Y-87400001D01*
X136960000Y-87362678D01*
X136960000Y-70148061D01*
X141165000Y-70148061D01*
X141165000Y-70351939D01*
X141204774Y-70551898D01*
X141282795Y-70740256D01*
X141396063Y-70909774D01*
X141540226Y-71053937D01*
X141709744Y-71167205D01*
X141898102Y-71245226D01*
X142098061Y-71285000D01*
X142301939Y-71285000D01*
X142501898Y-71245226D01*
X142690256Y-71167205D01*
X142859774Y-71053937D01*
X143003937Y-70909774D01*
X143117205Y-70740256D01*
X143195226Y-70551898D01*
X143235000Y-70351939D01*
X143235000Y-70289801D01*
X143711004Y-69813798D01*
X143740001Y-69790001D01*
X143834974Y-69674276D01*
X143905546Y-69542247D01*
X143949003Y-69398986D01*
X143960000Y-69287333D01*
X143960000Y-69287332D01*
X143963677Y-69250000D01*
X143960000Y-69212667D01*
X143960000Y-65253711D01*
X144003937Y-65209774D01*
X144117205Y-65040256D01*
X144195226Y-64851898D01*
X144235000Y-64651939D01*
X144235000Y-64448061D01*
X144195226Y-64248102D01*
X144117205Y-64059744D01*
X144003937Y-63890226D01*
X143859774Y-63746063D01*
X143690256Y-63632795D01*
X143501898Y-63554774D01*
X143301939Y-63515000D01*
X143098061Y-63515000D01*
X142898102Y-63554774D01*
X142709744Y-63632795D01*
X142540226Y-63746063D01*
X142396063Y-63890226D01*
X142282795Y-64059744D01*
X142204774Y-64248102D01*
X142165000Y-64448061D01*
X142165000Y-64651939D01*
X142204774Y-64851898D01*
X142282795Y-65040256D01*
X142396063Y-65209774D01*
X142440001Y-65253712D01*
X142440000Y-68935198D01*
X142160199Y-69215000D01*
X142098061Y-69215000D01*
X141898102Y-69254774D01*
X141709744Y-69332795D01*
X141540226Y-69446063D01*
X141396063Y-69590226D01*
X141282795Y-69759744D01*
X141204774Y-69948102D01*
X141165000Y-70148061D01*
X136960000Y-70148061D01*
X136960000Y-67564330D01*
X136963676Y-67527007D01*
X136960000Y-67489685D01*
X136960000Y-67489675D01*
X136949003Y-67378022D01*
X136905546Y-67234761D01*
X136901261Y-67226745D01*
X136834974Y-67102731D01*
X136763799Y-67016005D01*
X136740001Y-66987007D01*
X136711003Y-66963209D01*
X132686796Y-62939003D01*
X132662993Y-62909999D01*
X132547268Y-62815026D01*
X132415239Y-62744454D01*
X132271978Y-62700997D01*
X132160325Y-62690000D01*
X132160314Y-62690000D01*
X132122992Y-62686324D01*
X132085670Y-62690000D01*
X130703711Y-62690000D01*
X130659774Y-62646063D01*
X130490256Y-62532795D01*
X130301898Y-62454774D01*
X130101939Y-62415000D01*
X129898061Y-62415000D01*
X129698102Y-62454774D01*
X129509744Y-62532795D01*
X129340226Y-62646063D01*
X129196063Y-62790226D01*
X129082795Y-62959744D01*
X129004774Y-63148102D01*
X128965000Y-63348061D01*
X128965000Y-63551939D01*
X129004774Y-63751898D01*
X129082795Y-63940256D01*
X129196063Y-64109774D01*
X129340226Y-64253937D01*
X129509744Y-64367205D01*
X129698102Y-64445226D01*
X129898061Y-64485000D01*
X130101939Y-64485000D01*
X130301898Y-64445226D01*
X130490256Y-64367205D01*
X130659774Y-64253937D01*
X130703711Y-64210000D01*
X131632840Y-64210000D01*
X131532785Y-64359744D01*
X131454764Y-64548102D01*
X131414990Y-64748061D01*
X131414990Y-64951939D01*
X131454764Y-65151898D01*
X131532785Y-65340256D01*
X131646053Y-65509774D01*
X131701003Y-65564724D01*
X131744444Y-65707932D01*
X131769027Y-65753921D01*
X131815016Y-65839961D01*
X131886191Y-65926687D01*
X131909990Y-65955686D01*
X131938988Y-65979484D01*
X132140000Y-66180496D01*
X132140001Y-87985503D01*
X130235352Y-89890153D01*
X130173214Y-89890153D01*
X129973255Y-89929927D01*
X129784897Y-90007948D01*
X129615379Y-90121216D01*
X129471216Y-90265379D01*
X129357948Y-90434897D01*
X129279927Y-90623255D01*
X129240153Y-90823214D01*
X129240153Y-91027092D01*
X129279927Y-91227051D01*
X129357948Y-91415409D01*
X129471216Y-91584927D01*
X129615379Y-91729090D01*
X129784897Y-91842358D01*
X129973255Y-91920379D01*
X130173214Y-91960153D01*
X130377092Y-91960153D01*
X130577051Y-91920379D01*
X130765409Y-91842358D01*
X130934927Y-91729090D01*
X131079090Y-91584927D01*
X131192358Y-91415409D01*
X131270379Y-91227051D01*
X131310153Y-91027092D01*
X131310153Y-90964954D01*
X133224409Y-89050699D01*
X133204774Y-89098102D01*
X133165000Y-89298061D01*
X133165000Y-89501939D01*
X133204774Y-89701898D01*
X133282795Y-89890256D01*
X133396063Y-90059774D01*
X133540226Y-90203937D01*
X133709744Y-90317205D01*
X133898102Y-90395226D01*
X134098061Y-90435000D01*
X134301939Y-90435000D01*
X134378493Y-90419773D01*
X134404774Y-90551898D01*
X134458728Y-90682155D01*
X127789003Y-97351881D01*
X127759999Y-97375684D01*
X127704871Y-97442859D01*
X127665026Y-97491409D01*
X127637875Y-97542205D01*
X127594454Y-97623439D01*
X127550997Y-97766700D01*
X127540000Y-97878353D01*
X127540000Y-97878363D01*
X127536324Y-97915685D01*
X127540000Y-97953008D01*
X127540001Y-99446288D01*
X127496063Y-99490226D01*
X127382795Y-99659744D01*
X127304774Y-99848102D01*
X127265000Y-100048061D01*
X118960000Y-100048061D01*
X118960000Y-80652096D01*
X119078682Y-80749495D01*
X119306259Y-80871138D01*
X119553195Y-80946045D01*
X119745649Y-80965000D01*
X120224351Y-80965000D01*
X120416805Y-80946045D01*
X120663741Y-80871138D01*
X120891318Y-80749495D01*
X121090792Y-80585792D01*
X121254495Y-80386318D01*
X121376138Y-80158741D01*
X121451045Y-79911805D01*
X121476338Y-79655000D01*
X121451045Y-79398195D01*
X121434909Y-79345000D01*
X121594267Y-79345000D01*
X121617147Y-79577300D01*
X121684906Y-79800674D01*
X121794942Y-80006536D01*
X121943025Y-80186975D01*
X122123464Y-80335058D01*
X122329326Y-80445094D01*
X122552700Y-80512853D01*
X122726793Y-80530000D01*
X123243207Y-80530000D01*
X123417300Y-80512853D01*
X123640674Y-80445094D01*
X123846536Y-80335058D01*
X124026975Y-80186975D01*
X124175058Y-80006536D01*
X124285094Y-79800674D01*
X124352853Y-79577300D01*
X124375733Y-79345000D01*
X124352853Y-79112700D01*
X124285094Y-78889326D01*
X124175058Y-78683464D01*
X124026975Y-78503025D01*
X123846536Y-78354942D01*
X123640674Y-78244906D01*
X123417300Y-78177147D01*
X123243207Y-78160000D01*
X122726793Y-78160000D01*
X122552700Y-78177147D01*
X122329326Y-78244906D01*
X122123464Y-78354942D01*
X121943025Y-78503025D01*
X121794942Y-78683464D01*
X121684906Y-78889326D01*
X121617147Y-79112700D01*
X121594267Y-79345000D01*
X121434909Y-79345000D01*
X121376138Y-79151259D01*
X121254495Y-78923682D01*
X121090792Y-78724208D01*
X120891318Y-78560505D01*
X120663741Y-78438862D01*
X120416805Y-78363955D01*
X120224351Y-78345000D01*
X119745649Y-78345000D01*
X119553195Y-78363955D01*
X119306259Y-78438862D01*
X119078682Y-78560505D01*
X118960000Y-78657904D01*
X118960000Y-75192096D01*
X119078682Y-75289495D01*
X119306259Y-75411138D01*
X119553195Y-75486045D01*
X119745649Y-75505000D01*
X120224351Y-75505000D01*
X120416805Y-75486045D01*
X120663741Y-75411138D01*
X120891318Y-75289495D01*
X121090792Y-75125792D01*
X121254495Y-74926318D01*
X121376138Y-74698741D01*
X121434908Y-74505000D01*
X121594267Y-74505000D01*
X121617147Y-74737300D01*
X121684906Y-74960674D01*
X121794942Y-75166536D01*
X121943025Y-75346975D01*
X122123464Y-75495058D01*
X122329326Y-75605094D01*
X122552700Y-75672853D01*
X122726793Y-75690000D01*
X123243207Y-75690000D01*
X123417300Y-75672853D01*
X123640674Y-75605094D01*
X123846536Y-75495058D01*
X124026975Y-75346975D01*
X124175058Y-75166536D01*
X124285094Y-74960674D01*
X124352853Y-74737300D01*
X124375733Y-74505000D01*
X124352853Y-74272700D01*
X124285094Y-74049326D01*
X124175058Y-73843464D01*
X124026975Y-73663025D01*
X123846536Y-73514942D01*
X123640674Y-73404906D01*
X123417300Y-73337147D01*
X123243207Y-73320000D01*
X122726793Y-73320000D01*
X122552700Y-73337147D01*
X122329326Y-73404906D01*
X122123464Y-73514942D01*
X121943025Y-73663025D01*
X121794942Y-73843464D01*
X121684906Y-74049326D01*
X121617147Y-74272700D01*
X121594267Y-74505000D01*
X121434908Y-74505000D01*
X121451045Y-74451805D01*
X121476338Y-74195000D01*
X121451045Y-73938195D01*
X121376138Y-73691259D01*
X121254495Y-73463682D01*
X121090792Y-73264208D01*
X120891318Y-73100505D01*
X120663741Y-72978862D01*
X120416805Y-72903955D01*
X120224351Y-72885000D01*
X119745649Y-72885000D01*
X119553195Y-72903955D01*
X119306259Y-72978862D01*
X119078682Y-73100505D01*
X118960000Y-73197904D01*
X118960000Y-56310000D01*
X174140000Y-56310000D01*
X174140001Y-128990000D01*
M02*
