G04 #@! TF.GenerationSoftware,KiCad,Pcbnew,5.1.5-52549c5~86~ubuntu18.04.1*
G04 #@! TF.CreationDate,2020-05-14T11:32:23-04:00*
G04 #@! TF.ProjectId,SoundBoard,536f756e-6442-46f6-9172-642e6b696361,rev?*
G04 #@! TF.SameCoordinates,Original*
G04 #@! TF.FileFunction,Legend,Bot*
G04 #@! TF.FilePolarity,Positive*
%FSLAX46Y46*%
G04 Gerber Fmt 4.6, Leading zero omitted, Abs format (unit mm)*
G04 Created by KiCad (PCBNEW 5.1.5-52549c5~86~ubuntu18.04.1) date 2020-05-14 11:32:23*
%MOMM*%
%LPD*%
G04 APERTURE LIST*
%ADD10C,0.150000*%
G04 APERTURE END LIST*
D10*
X94023809Y-137652380D02*
X94023809Y-136652380D01*
X93785714Y-136652380D01*
X93642857Y-136700000D01*
X93547619Y-136795238D01*
X93500000Y-136890476D01*
X93452380Y-137080952D01*
X93452380Y-137223809D01*
X93500000Y-137414285D01*
X93547619Y-137509523D01*
X93642857Y-137604761D01*
X93785714Y-137652380D01*
X94023809Y-137652380D01*
X93023809Y-137128571D02*
X92690476Y-137128571D01*
X92547619Y-137652380D02*
X93023809Y-137652380D01*
X93023809Y-136652380D01*
X92547619Y-136652380D01*
X92166666Y-137604761D02*
X92023809Y-137652380D01*
X91785714Y-137652380D01*
X91690476Y-137604761D01*
X91642857Y-137557142D01*
X91595238Y-137461904D01*
X91595238Y-137366666D01*
X91642857Y-137271428D01*
X91690476Y-137223809D01*
X91785714Y-137176190D01*
X91976190Y-137128571D01*
X92071428Y-137080952D01*
X92119047Y-137033333D01*
X92166666Y-136938095D01*
X92166666Y-136842857D01*
X92119047Y-136747619D01*
X92071428Y-136700000D01*
X91976190Y-136652380D01*
X91738095Y-136652380D01*
X91595238Y-136700000D01*
X91166666Y-137652380D02*
X91166666Y-136652380D01*
X90166666Y-136700000D02*
X90261904Y-136652380D01*
X90404761Y-136652380D01*
X90547619Y-136700000D01*
X90642857Y-136795238D01*
X90690476Y-136890476D01*
X90738095Y-137080952D01*
X90738095Y-137223809D01*
X90690476Y-137414285D01*
X90642857Y-137509523D01*
X90547619Y-137604761D01*
X90404761Y-137652380D01*
X90309523Y-137652380D01*
X90166666Y-137604761D01*
X90119047Y-137557142D01*
X90119047Y-137223809D01*
X90309523Y-137223809D01*
X89690476Y-137652380D02*
X89690476Y-136652380D01*
X89119047Y-137652380D01*
X89119047Y-136652380D01*
X88642857Y-137128571D02*
X88309523Y-137128571D01*
X88166666Y-137652380D02*
X88642857Y-137652380D01*
X88642857Y-136652380D01*
X88166666Y-136652380D01*
X87738095Y-137652380D02*
X87738095Y-136652380D01*
X87500000Y-136652380D01*
X87357142Y-136700000D01*
X87261904Y-136795238D01*
X87214285Y-136890476D01*
X87166666Y-137080952D01*
X87166666Y-137223809D01*
X87214285Y-137414285D01*
X87261904Y-137509523D01*
X87357142Y-137604761D01*
X87500000Y-137652380D01*
X87738095Y-137652380D01*
X85642857Y-137128571D02*
X85500000Y-137176190D01*
X85452380Y-137223809D01*
X85404761Y-137319047D01*
X85404761Y-137461904D01*
X85452380Y-137557142D01*
X85500000Y-137604761D01*
X85595238Y-137652380D01*
X85976190Y-137652380D01*
X85976190Y-136652380D01*
X85642857Y-136652380D01*
X85547619Y-136700000D01*
X85500000Y-136747619D01*
X85452380Y-136842857D01*
X85452380Y-136938095D01*
X85500000Y-137033333D01*
X85547619Y-137080952D01*
X85642857Y-137128571D01*
X85976190Y-137128571D01*
X84785714Y-137176190D02*
X84785714Y-137652380D01*
X85119047Y-136652380D02*
X84785714Y-137176190D01*
X84452380Y-136652380D01*
X83071428Y-136652380D02*
X83071428Y-137366666D01*
X83119047Y-137509523D01*
X83214285Y-137604761D01*
X83357142Y-137652380D01*
X83452380Y-137652380D01*
X82404761Y-136652380D02*
X82214285Y-136652380D01*
X82119047Y-136700000D01*
X82023809Y-136795238D01*
X81976190Y-136985714D01*
X81976190Y-137319047D01*
X82023809Y-137509523D01*
X82119047Y-137604761D01*
X82214285Y-137652380D01*
X82404761Y-137652380D01*
X82500000Y-137604761D01*
X82595238Y-137509523D01*
X82642857Y-137319047D01*
X82642857Y-136985714D01*
X82595238Y-136795238D01*
X82500000Y-136700000D01*
X82404761Y-136652380D01*
X81547619Y-137128571D02*
X81214285Y-137128571D01*
X81071428Y-137652380D02*
X81547619Y-137652380D01*
X81547619Y-136652380D01*
X81071428Y-136652380D01*
X79880952Y-137652380D02*
X79880952Y-136652380D01*
X79500000Y-136652380D01*
X79404761Y-136700000D01*
X79357142Y-136747619D01*
X79309523Y-136842857D01*
X79309523Y-136985714D01*
X79357142Y-137080952D01*
X79404761Y-137128571D01*
X79500000Y-137176190D01*
X79880952Y-137176190D01*
X78880952Y-137128571D02*
X78547619Y-137128571D01*
X78404761Y-137652380D02*
X78880952Y-137652380D01*
X78880952Y-136652380D01*
X78404761Y-136652380D01*
X77404761Y-137652380D02*
X77738095Y-137176190D01*
X77976190Y-137652380D02*
X77976190Y-136652380D01*
X77595238Y-136652380D01*
X77500000Y-136700000D01*
X77452380Y-136747619D01*
X77404761Y-136842857D01*
X77404761Y-136985714D01*
X77452380Y-137080952D01*
X77500000Y-137128571D01*
X77595238Y-137176190D01*
X77976190Y-137176190D01*
X76404761Y-137652380D02*
X76738095Y-137176190D01*
X76976190Y-137652380D02*
X76976190Y-136652380D01*
X76595238Y-136652380D01*
X76500000Y-136700000D01*
X76452380Y-136747619D01*
X76404761Y-136842857D01*
X76404761Y-136985714D01*
X76452380Y-137080952D01*
X76500000Y-137128571D01*
X76595238Y-137176190D01*
X76976190Y-137176190D01*
X75976190Y-137652380D02*
X75976190Y-136652380D01*
X93942857Y-136204761D02*
X93800000Y-136252380D01*
X93561904Y-136252380D01*
X93466666Y-136204761D01*
X93419047Y-136157142D01*
X93371428Y-136061904D01*
X93371428Y-135966666D01*
X93419047Y-135871428D01*
X93466666Y-135823809D01*
X93561904Y-135776190D01*
X93752380Y-135728571D01*
X93847619Y-135680952D01*
X93895238Y-135633333D01*
X93942857Y-135538095D01*
X93942857Y-135442857D01*
X93895238Y-135347619D01*
X93847619Y-135300000D01*
X93752380Y-135252380D01*
X93514285Y-135252380D01*
X93371428Y-135300000D01*
X92752380Y-135252380D02*
X92561904Y-135252380D01*
X92466666Y-135300000D01*
X92371428Y-135395238D01*
X92323809Y-135585714D01*
X92323809Y-135919047D01*
X92371428Y-136109523D01*
X92466666Y-136204761D01*
X92561904Y-136252380D01*
X92752380Y-136252380D01*
X92847619Y-136204761D01*
X92942857Y-136109523D01*
X92990476Y-135919047D01*
X92990476Y-135585714D01*
X92942857Y-135395238D01*
X92847619Y-135300000D01*
X92752380Y-135252380D01*
X91895238Y-135252380D02*
X91895238Y-136061904D01*
X91847619Y-136157142D01*
X91800000Y-136204761D01*
X91704761Y-136252380D01*
X91514285Y-136252380D01*
X91419047Y-136204761D01*
X91371428Y-136157142D01*
X91323809Y-136061904D01*
X91323809Y-135252380D01*
X90847619Y-136252380D02*
X90847619Y-135252380D01*
X90276190Y-136252380D01*
X90276190Y-135252380D01*
X89800000Y-136252380D02*
X89800000Y-135252380D01*
X89561904Y-135252380D01*
X89419047Y-135300000D01*
X89323809Y-135395238D01*
X89276190Y-135490476D01*
X89228571Y-135680952D01*
X89228571Y-135823809D01*
X89276190Y-136014285D01*
X89323809Y-136109523D01*
X89419047Y-136204761D01*
X89561904Y-136252380D01*
X89800000Y-136252380D01*
X88466666Y-135728571D02*
X88323809Y-135776190D01*
X88276190Y-135823809D01*
X88228571Y-135919047D01*
X88228571Y-136061904D01*
X88276190Y-136157142D01*
X88323809Y-136204761D01*
X88419047Y-136252380D01*
X88800000Y-136252380D01*
X88800000Y-135252380D01*
X88466666Y-135252380D01*
X88371428Y-135300000D01*
X88323809Y-135347619D01*
X88276190Y-135442857D01*
X88276190Y-135538095D01*
X88323809Y-135633333D01*
X88371428Y-135680952D01*
X88466666Y-135728571D01*
X88800000Y-135728571D01*
X87609523Y-135252380D02*
X87419047Y-135252380D01*
X87323809Y-135300000D01*
X87228571Y-135395238D01*
X87180952Y-135585714D01*
X87180952Y-135919047D01*
X87228571Y-136109523D01*
X87323809Y-136204761D01*
X87419047Y-136252380D01*
X87609523Y-136252380D01*
X87704761Y-136204761D01*
X87800000Y-136109523D01*
X87847619Y-135919047D01*
X87847619Y-135585714D01*
X87800000Y-135395238D01*
X87704761Y-135300000D01*
X87609523Y-135252380D01*
X86800000Y-135966666D02*
X86323809Y-135966666D01*
X86895238Y-136252380D02*
X86561904Y-135252380D01*
X86228571Y-136252380D01*
X85323809Y-136252380D02*
X85657142Y-135776190D01*
X85895238Y-136252380D02*
X85895238Y-135252380D01*
X85514285Y-135252380D01*
X85419047Y-135300000D01*
X85371428Y-135347619D01*
X85323809Y-135442857D01*
X85323809Y-135585714D01*
X85371428Y-135680952D01*
X85419047Y-135728571D01*
X85514285Y-135776190D01*
X85895238Y-135776190D01*
X84895238Y-136252380D02*
X84895238Y-135252380D01*
X84657142Y-135252380D01*
X84514285Y-135300000D01*
X84419047Y-135395238D01*
X84371428Y-135490476D01*
X84323809Y-135680952D01*
X84323809Y-135823809D01*
X84371428Y-136014285D01*
X84419047Y-136109523D01*
X84514285Y-136204761D01*
X84657142Y-136252380D01*
X84895238Y-136252380D01*
X82561904Y-136252380D02*
X82895238Y-135776190D01*
X83133333Y-136252380D02*
X83133333Y-135252380D01*
X82752380Y-135252380D01*
X82657142Y-135300000D01*
X82609523Y-135347619D01*
X82561904Y-135442857D01*
X82561904Y-135585714D01*
X82609523Y-135680952D01*
X82657142Y-135728571D01*
X82752380Y-135776190D01*
X83133333Y-135776190D01*
X82133333Y-135728571D02*
X81800000Y-135728571D01*
X81657142Y-136252380D02*
X82133333Y-136252380D01*
X82133333Y-135252380D01*
X81657142Y-135252380D01*
X81371428Y-135252380D02*
X81038095Y-136252380D01*
X80704761Y-135252380D01*
X79085714Y-136252380D02*
X79657142Y-136252380D01*
X79371428Y-136252380D02*
X79371428Y-135252380D01*
X79466666Y-135395238D01*
X79561904Y-135490476D01*
X79657142Y-135538095D01*
X78657142Y-136157142D02*
X78609523Y-136204761D01*
X78657142Y-136252380D01*
X78704761Y-136204761D01*
X78657142Y-136157142D01*
X78657142Y-136252380D01*
X77990476Y-135252380D02*
X77895238Y-135252380D01*
X77800000Y-135300000D01*
X77752380Y-135347619D01*
X77704761Y-135442857D01*
X77657142Y-135633333D01*
X77657142Y-135871428D01*
X77704761Y-136061904D01*
X77752380Y-136157142D01*
X77800000Y-136204761D01*
X77895238Y-136252380D01*
X77990476Y-136252380D01*
X78085714Y-136204761D01*
X78133333Y-136157142D01*
X78180952Y-136061904D01*
X78228571Y-135871428D01*
X78228571Y-135633333D01*
X78180952Y-135442857D01*
X78133333Y-135347619D01*
X78085714Y-135300000D01*
X77990476Y-135252380D01*
X73119047Y-128702380D02*
X73119047Y-129416666D01*
X73166666Y-129559523D01*
X73261904Y-129654761D01*
X73404761Y-129702380D01*
X73500000Y-129702380D01*
X72166666Y-129702380D02*
X72642857Y-129702380D01*
X72642857Y-128702380D01*
X71261904Y-129607142D02*
X71309523Y-129654761D01*
X71452380Y-129702380D01*
X71547619Y-129702380D01*
X71690476Y-129654761D01*
X71785714Y-129559523D01*
X71833333Y-129464285D01*
X71880952Y-129273809D01*
X71880952Y-129130952D01*
X71833333Y-128940476D01*
X71785714Y-128845238D01*
X71690476Y-128750000D01*
X71547619Y-128702380D01*
X71452380Y-128702380D01*
X71309523Y-128750000D01*
X71261904Y-128797619D01*
X70547619Y-128702380D02*
X70547619Y-129416666D01*
X70595238Y-129559523D01*
X70690476Y-129654761D01*
X70833333Y-129702380D01*
X70928571Y-129702380D01*
X69595238Y-129702380D02*
X70071428Y-129702380D01*
X70071428Y-128702380D01*
X68690476Y-129607142D02*
X68738095Y-129654761D01*
X68880952Y-129702380D01*
X68976190Y-129702380D01*
X69119047Y-129654761D01*
X69214285Y-129559523D01*
X69261904Y-129464285D01*
X69309523Y-129273809D01*
X69309523Y-129130952D01*
X69261904Y-128940476D01*
X69214285Y-128845238D01*
X69119047Y-128750000D01*
X68976190Y-128702380D01*
X68880952Y-128702380D01*
X68738095Y-128750000D01*
X68690476Y-128797619D01*
X67976190Y-128702380D02*
X67976190Y-129416666D01*
X68023809Y-129559523D01*
X68119047Y-129654761D01*
X68261904Y-129702380D01*
X68357142Y-129702380D01*
X67023809Y-129702380D02*
X67500000Y-129702380D01*
X67500000Y-128702380D01*
X66119047Y-129607142D02*
X66166666Y-129654761D01*
X66309523Y-129702380D01*
X66404761Y-129702380D01*
X66547619Y-129654761D01*
X66642857Y-129559523D01*
X66690476Y-129464285D01*
X66738095Y-129273809D01*
X66738095Y-129130952D01*
X66690476Y-128940476D01*
X66642857Y-128845238D01*
X66547619Y-128750000D01*
X66404761Y-128702380D01*
X66309523Y-128702380D01*
X66166666Y-128750000D01*
X66119047Y-128797619D01*
X65404761Y-128702380D02*
X65404761Y-129416666D01*
X65452380Y-129559523D01*
X65547619Y-129654761D01*
X65690476Y-129702380D01*
X65785714Y-129702380D01*
X64452380Y-129702380D02*
X64928571Y-129702380D01*
X64928571Y-128702380D01*
X63547619Y-129607142D02*
X63595238Y-129654761D01*
X63738095Y-129702380D01*
X63833333Y-129702380D01*
X63976190Y-129654761D01*
X64071428Y-129559523D01*
X64119047Y-129464285D01*
X64166666Y-129273809D01*
X64166666Y-129130952D01*
X64119047Y-128940476D01*
X64071428Y-128845238D01*
X63976190Y-128750000D01*
X63833333Y-128702380D01*
X63738095Y-128702380D01*
X63595238Y-128750000D01*
X63547619Y-128797619D01*
M02*
